<?xml version="1.0" encoding="UTF-8" standalone="no"?>
<svg width="88px" height="88px" viewBox="0 0 88 88" version="1.1" xmlns="http://www.w3.org/2000/svg" xmlns:xlink="http://www.w3.org/1999/xlink" xmlns:sketch="http://www.bohemiancoding.com/sketch/ns">
    <!-- Generator: Sketch 3.1.1 (8761) - http://www.bohemiancoding.com/sketch -->
    <title>facebook - square</title>
    <desc>Created with Sketch.</desc>
    <defs></defs>
    <g id="Page-1" stroke="none" stroke-width="1" fill="none" fill-rule="evenodd" sketch:type="MSPage">
        <g id="Desktop-HD" sketch:type="MSArtboardGroup" transform="translate(-676.000000, -1111.000000)">
            <g id="instagram---square-+-facebook---square-+-twitter---square" sketch:type="MSLayerGroup" transform="translate(432.000000, 1114.000000)">
                <g id="facebook---square" transform="translate(247.000000, 0.000000)" sketch:type="MSShapeGroup">
                    <path d="M0.0169582127,-0.447132026 L82.1770305,-0.447132026 L82.1770305,82.2261216 L0.0169582127,82.2261216 L0.0169582127,-0.447132026 Z" id="Fill-158" stroke="#333333" stroke-width="4"></path>
                    <path d="M31.1965318,33.8921216 L35.4451079,33.8921216 L35.4451079,29.7391399 C35.4451079,27.9068706 35.4909993,25.0831346 36.8121882,23.3334876 C38.2058371,21.4793477 40.1163679,20.2205739 43.4060557,20.2205739 C48.7632711,20.2205739 51.019195,20.9884745 51.019195,20.9884745 L49.9588625,27.3187948 C49.9588625,27.3187948 48.1884211,26.806051 46.5363312,26.806051 C44.8842414,26.806051 43.4060557,27.401417 43.4060557,29.0611516 L43.4060557,33.8921216 L50.1786581,33.8921216 L49.7052522,40.0742078 L43.4060557,40.0742078 L43.4060557,61.5584157 L35.4451079,61.5584157 L35.4451079,40.0742078 L31.1965318,40.0742078 L31.1965318,33.8921216" id="Fill-277" fill="#333333"></path>
                </g>
            </g>
        </g>
    </g>
</svg>