<?xml version="1.0" encoding="UTF-8" standalone="no"?>
<svg width="89px" height="88px" viewBox="0 0 89 88" version="1.1" xmlns="http://www.w3.org/2000/svg" xmlns:xlink="http://www.w3.org/1999/xlink" xmlns:sketch="http://www.bohemiancoding.com/sketch/ns">
    <!-- Generator: Sketch 3.1.1 (8761) - http://www.bohemiancoding.com/sketch -->
    <title>instagram - square</title>
    <desc>Created with Sketch.</desc>
    <defs></defs>
    <g id="Page-1" stroke="none" stroke-width="1" fill="none" fill-rule="evenodd" sketch:type="MSPage">
        <g id="Desktop-HD" sketch:type="MSArtboardGroup" transform="translate(-922.000000, -1111.000000)">
            <g id="instagram---square-+-facebook---square-+-twitter---square" sketch:type="MSLayerGroup" transform="translate(432.000000, 1114.000000)">
                <g id="instagram---square" transform="translate(493.000000, 0.000000)" sketch:type="MSShapeGroup">
                    <path d="M0.45654938,-0.352359477 L82.6166217,-0.352359477 L82.6166217,82.3063137 L0.45654938,82.3063137 L0.45654938,-0.352359477 Z" id="Fill-142" stroke="#333333" stroke-width="4"></path>
                    <path d="M58.047823,53.6485529 C58.047823,55.8331817 56.2822124,57.6095595 54.1108252,57.6095595 L28.9092085,57.6095595 C26.7378213,57.6095595 24.9722107,55.8331817 24.9722107,53.6485529 L24.9722107,36.7280078 L31.104749,36.7280078 C30.5757904,38.0378131 30.278704,39.4666915 30.278704,40.9684719 C30.278704,47.1991595 35.3170951,52.2731359 41.5100168,52.2731359 C47.7029386,52.2731359 52.7413297,47.1991595 52.7413297,40.9684719 C52.7413297,39.4666915 52.441828,38.0378131 51.9152847,36.7280078 L58.047823,36.7280078 L58.047823,53.6485529 L58.047823,53.6485529 Z M35.6479962,36.7280078 C36.961939,34.8933085 39.0970961,33.6928562 41.5100168,33.6928562 C43.9229376,33.6928562 46.0580947,34.8933085 47.3720375,36.7280078 C48.2294818,37.9236 48.7415331,39.3840693 48.7415331,40.9684719 C48.7415331,44.9805098 45.4953214,48.2440876 41.5100168,48.2440876 C37.5247123,48.2440876 34.2809159,44.9805098 34.2809159,40.9684719 C34.2809159,39.3840693 34.7929672,37.9236 35.6479962,36.7280078 L35.6479962,36.7280078 Z M56.3884871,25.0661242 L57.2966535,25.0612641 L57.2966535,32.0695725 L50.3549776,32.0890131 L50.3308242,25.0855647 L56.3884871,25.0661242 L56.3884871,25.0661242 Z M54.1108252,20.300766 L28.9092085,20.300766 C24.5326195,20.300766 20.9699988,23.8826824 20.9699988,28.2883908 L20.9699988,53.6485529 C20.9699988,58.0542614 24.5326195,61.6386078 28.9092085,61.6386078 L54.1108252,61.6386078 C58.4874142,61.6386078 62.0500349,58.0542614 62.0500349,53.6485529 L62.0500349,28.2883908 C62.0500349,23.8826824 58.4874142,20.300766 54.1108252,20.300766 L54.1108252,20.300766 Z" id="Fill-314" fill="#333333"></path>
                </g>
            </g>
        </g>
    </g>
</svg>