<?xml version="1.0" encoding="UTF-8" standalone="no"?>
<svg width="88px" height="88px" viewBox="0 0 88 88" version="1.1" xmlns="http://www.w3.org/2000/svg" xmlns:xlink="http://www.w3.org/1999/xlink" xmlns:sketch="http://www.bohemiancoding.com/sketch/ns">
    <!-- Generator: Sketch 3.1.1 (8761) - http://www.bohemiancoding.com/sketch -->
    <title>twitter - square</title>
    <desc>Created with Sketch.</desc>
    <defs></defs>
    <g id="Page-1" stroke="none" stroke-width="1" fill="none" fill-rule="evenodd" sketch:type="MSPage">
        <g id="Desktop-HD" sketch:type="MSArtboardGroup" transform="translate(-429.000000, -1111.000000)">
            <g id="instagram---square-+-facebook---square-+-twitter---square" sketch:type="MSLayerGroup" transform="translate(432.000000, 1114.000000)">
                <g id="twitter---square" sketch:type="MSShapeGroup">
                    <path d="M-0.0893165751,-0.447132026 L82.0707558,-0.447132026 L82.0707558,82.2261216 L-0.0893165751,82.2261216 L-0.0893165751,-0.447132026 Z" id="Fill-132" stroke="#333333" stroke-width="4"></path>
                    <path d="M61.6007824,30.0599085 C60.088782,30.7378967 58.4608455,31.192319 56.7532029,31.3988745 C58.4970755,30.3490863 59.8351717,28.6820614 60.4655745,26.7015582 C58.8328073,27.6735843 57.0285512,28.3783033 55.101113,28.7573935 C53.5649593,27.1098092 51.3694188,26.0770314 48.9395907,26.0770314 C44.2804073,26.0770314 40.5004064,29.8825137 40.5004064,34.5725399 C40.5004064,35.2383778 40.5728664,35.8847752 40.7177866,36.5068719 C33.7012353,36.1496523 27.4817449,32.7742915 23.3152901,27.6274131 C22.5882739,28.888617 22.1728361,30.3490863 22.1728361,31.9043281 C22.1728361,34.8471373 23.6630985,37.4497373 25.9286838,38.9733882 C24.5471115,38.9320771 23.24283,38.5481268 22.1027914,37.9138797 L22.1027914,38.0183725 C22.1027914,42.1349033 25.0132714,45.5685856 28.8778091,46.3486366 C28.1701156,46.547902 27.4237768,46.6475346 26.6532846,46.6475346 C26.109834,46.6475346 25.57846,46.5965033 25.0639934,46.4968706 C26.138818,49.8698013 29.2546015,52.3265974 32.9500658,52.3946392 C30.0613238,54.6716105 26.418997,56.030017 22.4650918,56.030017 C21.783967,56.030017 21.1100883,55.9911359 20.4507015,55.9133739 C24.1872264,58.3215686 28.6266142,59.7285765 33.3920723,59.7285765 C48.9226833,59.7285765 57.4125896,46.7860484 57.4125896,35.5567163 C57.4125896,35.1897765 57.4053436,34.8204065 57.3908516,34.4583268 C59.0405262,33.2603046 60.4728205,31.7658144 61.6007824,30.0599085" id="Fill-275" fill="#333333"></path>
                </g>
            </g>
        </g>
    </g>
</svg>