<?xml version="1.0" encoding="utf-8"?>
<!-- Generator: Adobe Illustrator 18.1.1, SVG Export Plug-In . SVG Version: 6.00 Build 0)  -->
<svg version="1.1" id="Layer_1" xmlns="http://www.w3.org/2000/svg" xmlns:xlink="http://www.w3.org/1999/xlink" x="0px" y="0px"
	 viewBox="0 0 612 502" enable-background="new 0 0 612 502" xml:space="preserve">

	<style>
		#A-building rect:hover, #B-building rect:hover, #C-building rect:hover, #D-building rect:hover, #E-building rect:hover, #F-building rect:hover, #GH-building rect:hover, #IJK-building polygon:hover, #L-building rect:hover, #MN-building rect:hover, #O-building rect:hover, #PQR-building rect:hover, #ST-building polygon:hover, #V-building rect:hover {
			fill: #010101;
			cursor: pointer;
		}

		#U-building rect:hover {
			fill: #12A099;
			cursor: pointer;
		}

	</style>

<g>
	<defs>
		<rect id="SVGID_1_" width="612" height="502"/>
	</defs>
	<clipPath id="SVGID_2_">
		<use xlink:href="#SVGID_1_"  overflow="visible"/>
	</clipPath>
	
	<!-- building outlines -->
	<g id="Building_Outlines" clip-path="url(#SVGID_2_)">
		
		<a onclick="$('#A').animatescroll();">
			<g id="A-building">
				<rect x="63.2" y="409.3" transform="matrix(-0.1201 0.9928 -0.9928 -0.1201 516.5777 413.0889)" fill="#12A099" width="24" height="52.3"/>
				<path fill="#010101" d="M51.6,421.5l49.9,6l-2.6,21.9l-49.9-6L51.6,421.5 M49.8,419.3l-3.1,25.8l53.9,6.5l3.1-25.8L49.8,419.3
					L49.8,419.3z"/>
			</g>
		</a>

		<a onclick="$('#B').animatescroll();">
			<g id="B-building">
				<rect x="60.4" y="433.2" transform="matrix(-0.1201 0.9928 -0.9928 -0.1201 537.0983 442.5511)" fill="#12A099" width="24" height="52.3"/>
				<path fill="#010101" d="M48.8,445.4l49.9,6l-2.6,21.9l-49.9-6L48.8,445.4 M47,443.1L43.9,469l53.9,6.5l3.1-25.8L47,443.1
					L47,443.1z"/>
			</g>
		</a>

		<a onclick="$('#C').animatescroll();">
			<g id="C-building">
				<rect x="130.3" y="344.4" transform="matrix(-0.12 0.9928 -0.9928 -0.12 510.2702 258.3485)" fill="#12A099" width="20.7" height="21.8"/>
				<path fill="#010101" d="M131.9,344.9l19.7,2.4l-2.2,18.5l-19.7-2.4L131.9,344.9 M130.2,342.6l-2.7,22.5l23.7,2.9l2.7-22.5
					L130.2,342.6L130.2,342.6z"/>
			</g>
		</a>

		<a onclick="$('#D').animatescroll();">
			<g id="D-building">
				<rect x="169" y="369.5" transform="matrix(-0.1201 0.9928 -0.9928 -0.1201 576.5408 247.6026)" fill="#12A099" width="19" height="19.6"/>
				<path fill="#010101" d="M170.8,369.8l17.4,2.1l-2,16.9l-17.4-2.1L170.8,369.8 M169.1,367.6l-2.5,20.9L188,391l2.5-20.9
					L169.1,367.6L169.1,367.6z"/>
			</g>
		</a>

		<a onclick="$('#E').animatescroll();">
			<g id="E-building">
				<rect x="228.1" y="327.8" transform="matrix(-0.1201 0.9928 -0.9928 -0.1201 609.8722 136.9589)" fill="#12A099" width="32.2" height="21.8"/>
				<path fill="#010101" d="M236.2,322.6l19.7,2.4l-3.6,30l-19.7-2.4L236.2,322.6 M234.5,320.3l-4.1,34l23.7,2.9l4.1-34L234.5,320.3
					L234.5,320.3z"/>
			</g>
		</a>

		<a onclick="$('#F').animatescroll();">
			<g id="F-building">
				<rect x="292.4" y="336" transform="matrix(-0.1201 0.9928 -0.9928 -0.1201 689.9589 82.1934)" fill="#12A099" width="32.2" height="21.8"/>
				<path fill="#010101" d="M300.5,330.7l19.7,2.4l-3.6,30l-19.7-2.4L300.5,330.7 M298.8,328.5l-4.1,34l23.7,2.9l4.1-34L298.8,328.5
					L298.8,328.5z"/>
			</g>
		</a>
			
		<a onclick="$('#G').animatescroll();">
			<g id="GH-building">
				<rect x="366.9" y="297.5" transform="matrix(-0.1201 0.9928 -0.9928 -0.1201 738.7872 -37.9856)" fill="#12A099" width="38.7" height="21.8"/>
				<path fill="#010101" d="M378.6,289l19.7,2.4l-4.4,36.4l-19.7-2.4L378.6,289 M376.8,286.8l-4.9,40.4l23.7,2.9l4.9-40.4
					L376.8,286.8L376.8,286.8z"/>
			</g>
		</a>
			
		<a onclick="$('#I').animatescroll();">
			<g id="IJK-building">
				<polygon fill="#12A099" points="414.9,247.7 424.1,177.7 483.5,227.1 480.8,256.1 			"/>
				<path fill="#010101" d="M424.9,179.9l57.4,47.7l-2.5,27.2l-63.7-8.1L424.9,179.9 M423.2,175.5l-9.6,73.1l68.2,8.7l2.9-30.7
					L423.2,175.5L423.2,175.5z"/>
			</g>
		</a>
			
		<a onclick="$('#L').animatescroll();">
			<g id="L-building">
				<rect x="378.7" y="193.1" transform="matrix(-0.1285 0.9917 -0.9917 -0.1285 651.2572 -140.7533)" fill="#12A099" width="17.6" height="45.4"/>
				<path fill="#010101" d="M367,205.3l43,5.6l-2,15.5l-43-5.6L367,205.3 M365.2,203l-2.5,19.5l47,6.1l2.5-19.5L365.2,203L365.2,203z
					"/>
			</g>
		</a>

		<g id="skip-me">
			<path fill="#010101" d="M345.5,165.6l16.1,28l-13.9,8l-16.1-28L345.5,165.6 M346.2,162.8l-17.4,10l18.1,31.5l17.4-10L346.2,162.8
				L346.2,162.8z"/>
		</g>
			
		<a onclick="$('#M').animatescroll();">
			<g id="MN-building">	
				<rect x="351.1" y="158.2" transform="matrix(-0.8673 0.4978 -0.4978 -0.8673 761.2495 147.7242)" fill="#12A099" width="19.6" height="34.2"/>
				<path fill="#010101" d="M360.5,157.1l16,27.8l-15.2,8.7l-16-27.8L360.5,157.1 M361.3,154.2L342.5,165l18.1,31.5l18.8-10.8
					L361.3,154.2L361.3,154.2z"/>
			</g>
		</a>

		<a onclick="$('#O').animatescroll();">
			<g id="O-building">
				<rect x="371.1" y="146.1" transform="matrix(-0.8673 0.4979 -0.4979 -0.8673 787.2069 101.7494)" fill="#12A099" width="17.9" height="19.5"/>
				<path fill="#010101" d="M382.6,144.3l8.7,15.2l-13.8,7.9l-8.7-15.2L382.6,144.3 M383.3,141.5l-17.3,9.9l10.7,18.7l17.3-9.9
					L383.3,141.5L383.3,141.5z"/>
			</g>
		</a>

		<a onclick="$('#P').animatescroll();">
			<g id="PQR-building">
				<polygon fill="#12A099" points="398,133.8 433.6,113.7 474,150 451.3,178.3 			"/>
				<path fill="#010101" d="M433.4,115l39.2,35.2l-21.5,26.7l-51.5-42.9L433.4,115 M433.7,112.5l-37.5,21.1l55.3,46.1l23.9-29.8
					L433.7,112.5L433.7,112.5z"/>
			</g>
		</a>

		<a onclick="$('#S').animatescroll();">
			<g id="ST-building">
				<rect x="508.8" y="60.4" transform="matrix(-0.8673 0.4979 -0.4979 -0.8673 1018.0106 -131.107)" fill="#12A099" width="35.4" height="19.5"/>
				<path fill="#010101" d="M536.6,54.3l8.7,15.2l-28.9,16.6l-8.7-15.2L536.6,54.3 M537.3,51.5l-32.4,18.6l10.7,18.7L548,70.2
					L537.3,51.5L537.3,51.5z"/>
			</g>
		</a>

		<a onclick="$('#U').animatescroll();">
			<g id="U-building">
				<path fill="#12A099" d="M479.8,25.1l7.3,13.7l-12.4,6.6l-7.3-13.7L479.8,25.1 M480.7,22.3l-16.2,8.6l9.3,17.5l16.2-8.6
					L480.7,22.3L480.7,22.3z"/>
			</g>
		</a>

		<a onclick="$('#V').animatescroll();">
			<g id="V-building">
				<rect x="573.7" y="378.2" transform="matrix(-0.1201 0.9928 -0.9928 -0.1201 1038.4015 -144.348)" fill="#12A099" width="19" height="19.6"/>
				<path fill="#010101" d="M575.5,378.5l17.4,2.1l-2,16.9l-17.4-2.1L575.5,378.5 M573.7,376.3l-2.5,20.9l21.4,2.6l2.5-20.9
					L573.7,376.3L573.7,376.3z"/>
			</g>
		</a>

		<g id="empty">
			<path fill="#010101" d="M251.8,223.9l15.1,26.3l-20,11.5l-15.1-26.3L251.8,223.9 M252.5,221.1L229,234.6l17.1,29.8l23.5-13.5
				L252.5,221.1L252.5,221.1z"/>
		</g>

		<g id="gabby_x27_s">
			<rect x="136.6" y="308.9" transform="matrix(-0.1201 0.9928 -0.9928 -0.1201 483.7972 214.4014)" fill="none" width="20.5" height="25.5"/>
			<path fill="#010101" d="M136.3,311l23.3,2.8l-2.2,18.4l-23.3-2.8L136.3,311 M134.6,308.8l-2.7,22.4l27.3,3.3l2.7-22.4
				L134.6,308.8L134.6,308.8z"/>
		</g>

		<g id="dozen">
			<rect x="57.6" y="457" transform="matrix(-0.1201 0.9928 -0.9928 -0.1201 557.619 472.0132)" fill="none" width="24" height="52.3"/>
			<path fill="#010101" d="M46,469.2l49.9,6l-2.6,21.9l-49.9-6L46,469.2 M44.2,467l-3.1,25.8l53.9,6.5l3.1-25.8L44.2,467L44.2,467z"
				/>
		</g>
		<g>
			<g>
				<line fill="none" stroke="#12A099" stroke-width="2" stroke-miterlimit="10" x1="472.4" y1="27.3" x2="464.5" y2="12.2"/>
				<g>
					<polygon fill="#12A099" points="469.3,14.1 464.8,12.7 463.3,17.3 462,14.7 463.4,10.2 468,11.6 					"/>
				</g>
			</g>
		</g>
		<path id="sounds" fill="none" stroke="#231F20" stroke-width="2" stroke-miterlimit="10" d="M9.9,307.1l-0.8-0.2l18-84l84,18
			l-0.2,0.8C101,287.6,55.8,316.9,9.9,307.1z"/>
	</g>
	<g id="Parking_lots" clip-path="url(#SVGID_2_)">
		
			<rect x="361.1" y="227.4" transform="matrix(0.9917 0.1285 -0.1285 0.9917 33.5336 -47.4883)" fill="#010101" width="47.4" height="17.4"/>
		
			<rect x="284.3" y="186.4" transform="matrix(0.8673 -0.4979 0.4979 0.8673 -56.6382 179.3553)" fill="#010101" width="47.4" height="19"/>
		<g>
			<polygon fill="#010101" points="493.8,130.3 472.6,140.7 437.9,110.2 471.9,90.7 			"/>
		</g>
		<g>
			
				<rect x="53.5" y="360.1" transform="matrix(0.9928 0.1201 -0.1201 0.9928 47.2429 -6.9061)" fill="#010101" width="54.9" height="57.1"/>
		</g>
	</g>
	<g id="Streets" clip-path="url(#SVGID_2_)">
		<path id="chestnut_1_" fill="none" stroke="#000000" stroke-width="7" stroke-miterlimit="10" d="M627.1-8.8L169.5,254.9
			c0,0-49.5,26.9-53.6,88.6"/>
		
			<line id="_x34_th" fill="none" stroke="#231F20" stroke-width="7" stroke-miterlimit="10" x1="423.7" y1="-18.5" x2="650" y2="408.9"/>
		
			<line id="_x32_nd" fill="none" stroke="#231F20" stroke-width="7" stroke-miterlimit="10" x1="522.9" y1="-4" x2="619.5" y2="179"/>
		<path id="houston" fill="none" stroke="#000000" stroke-width="5" stroke-miterlimit="10" d="M273.2,195.2
			c6.4,20.9,16.8,33,23.1,38.8c3,2.8,6.8,4.5,10.8,5l204.7,26.6c0,0,27.5,1.9,44.4,21.3c1,1.1,2.1,2.1,3.3,3
			c9.2,6.8,41.3,30.1,50.7,37l75.3,52.3"/>
		
			<line id="martin" fill="none" stroke="#000000" stroke-width="5" stroke-miterlimit="10" x1="304" y1="238.8" x2="271.5" y2="504.1"/>
		
			<line id="brown" fill="none" stroke="#000000" stroke-width="5" stroke-miterlimit="10" x1="410.1" y1="250.9" x2="399.7" y2="336.8"/>
		
			<line id="alley" fill="none" stroke="#000000" stroke-width="2" stroke-miterlimit="10" x1="415.2" y1="211" x2="410.1" y2="250.9"/>
		
			<line id="humphreys" fill="none" stroke="#000000" stroke-width="5" stroke-miterlimit="10" x1="128.6" y1="300.5" x2="690" y2="372.2"/>
		
			<line id="humphreys_2_" fill="none" stroke="#000000" stroke-width="5" stroke-miterlimit="10" x1="563.4" y1="402.3" x2="633.3" y2="411.2"/>
		<path id="gray" fill="none" stroke="#000000" stroke-width="5" stroke-miterlimit="10" d="M117.8,333.8c0,0-1.1,17.6,0.7,41.7
			c0,7.5,0,12.5,0,12.5L283,410.6"/>
		
			<line id="Merritt" fill="none" stroke="#000000" stroke-width="5" stroke-miterlimit="10" x1="272.8" y1="480.8" x2="111.9" y2="458.8"/>
		
			<line id="chestnut" fill="none" stroke="#000000" stroke-width="7" stroke-miterlimit="10" x1="117.8" y1="347.5" x2="-45" y2="321.4"/>
		
			<line id="railroad_1_" fill="none" stroke="#000000" stroke-width="2" stroke-miterlimit="10" stroke-dasharray="12.5003,5.0001" x1="207.1" y1="-18.1" x2="727.1" y2="424"/>
		
			<line id="chestnut_extension" fill="none" stroke="#000000" stroke-width="5" stroke-miterlimit="10" x1="107.1" y1="481.1" x2="118.5" y2="388"/>
		<line fill="none" stroke="#000000" stroke-width="5" stroke-miterlimit="10" x1="514.8" y1="264.9" x2="494.3" y2="437.9"/>
		<line fill="none" stroke="#000000" stroke-width="5" stroke-miterlimit="10" x1="570.1" y1="356.4" x2="560" y2="441.5"/>
	</g>
	<g id="other_identifiers" clip-path="url(#SVGID_2_)">
		<path fill="none" d="M17.3,306.7l-0.8-0.2l18-84l84,18l-0.2,0.8C108.4,287.2,63.2,316.5,17.3,306.7z"/>
		<text transform="matrix(1 0 0 1 31.6828 241.6512)"><tspan x="0" y="0" font-family="'HelveticaNeue-CondensedBold'" font-size="10">OLD</tspan><tspan x="-2.6" y="12" font-family="'HelveticaNeue-CondensedBold'" font-size="10">NASHVILLE</tspan><tspan x="-5.1" y="24" font-family="'HelveticaNeue-CondensedBold'" font-size="10">SOUNDS</tspan><tspan x="-7.7" y="36" font-family="'HelveticaNeue-CondensedBold'" font-size="10">BALLPARK</tspan></text>
		<path id="SVGID_x5F_3_x5F_" fill="none" d="M329,186.6l-8.7-15.1L279.2,195l8.7,15.1L329,186.6z"/>
		<text>		<textPath  xlink:href="#SVGID_x5F_3_x5F_" startOffset="1976.4403%">
<tspan  fill="#FFFFFF" font-family="'HelveticaNeue-CondensedBold'" font-size="8">PARKING</tspan>		</textPath>
</text>
		<path id="SVGID_x5F_4_x5F_" fill="none" d="M481.8,96.5l-8.7-15.1l-41.1,23.6l8.7,15.1L481.8,96.5z"/>
		<text>		<textPath  xlink:href="#SVGID_x5F_4_x5F_" startOffset="2109.9299%">
<tspan  fill="#FFFFFF" font-family="'HelveticaNeue-CondensedBold'" font-size="8">PARKING</tspan>		</textPath>
</text>
		<path id="SVGID_x5F_5_x5F_" fill="none" d="M407.5,242.4l2.2-17.3l-46.6-6l-2.2,17.3L407.5,242.4z"/>
		<text>		<textPath  xlink:href="#SVGID_x5F_5_x5F_" startOffset="376.6927%">
<tspan  fill="#FFFFFF" font-family="'HelveticaNeue-CondensedBold'" font-size="8">PARKING</tspan>		</textPath>
</text>
		<g>
			<g>
				<g>
					<g>
						<line fill="none" stroke="#000000" stroke-miterlimit="10" x1="445.2" y1="424.6" x2="346.5" y2="424.6"/>
						<g>
							<polygon points="443.2,422.9 444.9,424.6 443.2,426.3 444.6,426.3 446.3,424.6 444.6,422.9 							"/>
						</g>
						<g>
							<polygon points="348.5,422.9 346.8,424.6 348.5,426.3 347.1,426.3 345.4,424.6 347.1,422.9 							"/>
						</g>
					</g>
				</g>
				<g>
					<g>
						<line fill="none" stroke="#000000" stroke-miterlimit="10" x1="395.8" y1="375.2" x2="395.8" y2="473.9"/>
						<g>
							<polygon points="391.8,378.5 392.5,379.2 395.8,375.6 399.2,379.2 399.9,378.5 395.8,374.1 							"/>
						</g>
						<g>
							<polygon points="394.1,471.9 395.8,473.6 397.5,471.9 397.5,473.4 395.8,475.1 394.1,473.4 							"/>
						</g>
					</g>
				</g>
			</g>
			<g>
				<rect x="377.6" y="392.3" fill="#FFFFFF" width="35.3" height="14.6"/>
				<rect x="367.2" y="396.6" fill="none" width="57.3" height="5.9"/>
				
					<text transform="matrix(1 4.400000e-04 -4.400000e-04 1 376.5047 402.3316)" font-family="'HelveticaNeue-CondensedBold'" font-size="8">DOWNTOWN</text>
			</g>
			<g>
				<rect x="377.6" y="440.8" fill="#FFFFFF" width="35.3" height="16.1"/>
				<rect x="366.9" y="445.9" fill="none" width="57.9" height="5.9"/>
				
					<text transform="matrix(1 4.400000e-04 -4.400000e-04 1 374.4364 451.6027)" font-family="'HelveticaNeue-CondensedBold'" font-size="8">NOLENSVILLE</text>
			</g>
			<g>
				<rect x="355.4" y="413.3" fill="#FFFFFF" width="20.8" height="23.3"/>
				<rect x="356.6" y="417.8" fill="none" width="18.5" height="24.4"/>
				<text transform="matrix(1 0 0 1 360.7377 423.4747)"><tspan x="0" y="0" font-family="'HelveticaNeue-CondensedBold'" font-size="8">8th</tspan><tspan x="-1.1" y="8" font-family="'HelveticaNeue-CondensedBold'" font-size="8">AVE</tspan></text>
			</g>
			<rect x="384.8" y="365.9" fill="none" width="22" height="6.6"/>
			<text transform="matrix(1 0 0 1 393.5451 371.567)" font-family="'HelveticaNeue-CondensedBold'" font-size="8">N</text>
		</g>
		<path id="SVGID_x5F_6_x5F_" fill="none" d="M102.8,393.7l2.2-17.3l-46.6-6l-2.2,17.3L102.8,393.7z"/>
		<text>		<textPath  xlink:href="#SVGID_x5F_6_x5F_" startOffset="376.6927%">
<tspan  fill="#FFFFFF" font-family="'HelveticaNeue-CondensedBold'" font-size="8">PARKING</tspan>		</textPath>
</text>
		<text transform="matrix(1.0829 0.1372 -0.1257 0.9921 445.7912 237.5927)"><tspan x="0" y="0" font-family="'HelveticaNeue-CondensedBold'" font-size="8">HOUSTON</tspan><tspan x="2.8" y="9.6" font-family="'HelveticaNeue-CondensedBold'" font-size="8">STATION</tspan></text>
		<g id="Gabby_x27_s">
			<g id="gabby_x27_s_black__x26__white">
				<path fill="#282121" d="M136.5,320c0-0.1,0.1-0.2,0.1-0.4c0.2-0.5,0.6-0.8,1-0.9c0,0,0.1,0,0.1,0c0.3-0.1,0.6-0.1,0.9,0.2
					c0.1,0.1,0.2,0.2,0.3,0.3c0.1,0.1,0.1,0.1,0.1,0.2c0,0.1,0,0.2-0.1,0.2c-0.1,0-0.1,0-0.2,0.1c-0.2,0.1-0.3,0.2-0.3,0.4
					c-0.1,0.2,0,0.3,0.1,0.5c0,0,0,0,0.1,0c0.3,0.1,0.5,0.1,0.8,0.1c0,0,0,0,0.1-0.1c0.1-0.6,0.4-1.2,0.6-1.7
					c0.1-0.3,0.3-0.6,0.5-0.8c0.1-0.2,0.2-0.3,0.3-0.5c0-0.1,0.1-0.1,0.1-0.2c0.1-0.2,0.3-0.4,0.4-0.5c0.2-0.2,0.4-0.5,0.7-0.7
					c0.4-0.3,0.7-0.7,1.2-0.8c0.2-0.1,0.4-0.1,0.7-0.1c0.1,0,0.3,0.1,0.3,0.2c0.1,0.1,0.2,0.2,0.2,0.2c0.1,0.1,0.1,0.2,0.2,0.3
					c0,0.1,0,0.2,0,0.2c0,0.5-0.1,0.9-0.2,1.3c-0.3,0.7-0.8,1.3-1.3,1.9c-0.5,0.6-1.2,1.1-1.8,1.6c-0.3,0.2-0.3,0.2-0.1,0.5
					c0,0.1,0.1,0.1,0.2,0.2c0.4,0.2,0.8,0.1,1.1,0c0,0,0,0,0-0.1c0-0.3,0.1-0.6,0.3-0.9c0.1-0.3,0.3-0.5,0.6-0.6
					c0.2-0.1,0.3,0,0.4,0.2c0,0,0,0.1,0,0.1c0.1,0,0.2,0.1,0.2,0.2c0,0,0-0.1,0.1-0.1c0.1-0.2,0.3-0.4,0.5-0.5
					c0.1-0.1,0.3-0.1,0.4,0c0,0,0.1,0.1,0.1,0.1c0-0.1,0-0.1,0-0.1c0,0,0-0.1,0.1,0c0.2,0.1,0.3,0,0.4,0c0,0,0.1,0,0.1-0.1
					c0,0,0,0-0.1,0c-0.2,0-0.4-0.1-0.5-0.3c0,0,0-0.1-0.1-0.1c-0.4-0.3-0.5-1,0.1-1.3c0.2-0.1,0.5-0.1,0.7,0c0.1,0.1,0,0.1,0.1,0.2
					c0.1,0,0.1,0.1,0.2,0.1c0,0,0,0.1,0,0.1c0,0-0.1,0.1-0.1,0.1c0,0,0,0.1,0,0.1c0,0,0.1,0,0.1,0c0.2,0,0.4,0,0.6-0.1
					c0,0,0.1,0,0.1-0.1c0-0.1,0.1-0.2,0.1-0.3c0.3-0.6,0.6-1.1,1.1-1.5c0.3-0.2,0.6-0.4,1-0.5c0.1,0,0.2,0,0.3,0.1
					c0.1,0.1,0.2,0.2,0.3,0.3c0.1,0.1,0.1,0.3,0.1,0.4c0,0,0,0,0,0.1c0,0,0,0,0,0c0,0,0,0,0,0c0.3-0.4,0.6-0.8,1-1.1
					c0.1-0.1,0.3-0.1,0.4-0.2c0.1,0,0.1,0,0.2,0c0.2,0,0.4,0,0.5,0.1c0,0,0,0.1,0.1,0.1c0.1,0,0.2,0.1,0.2,0.2c0,0.2,0,0.4-0.1,0.6
					c-0.1,0.2-0.2,0.4-0.4,0.6c-0.4,0.5-0.9,0.8-1.4,1.2c0,0-0.1,0-0.1,0c0,0,0,0,0,0.1c0,0,0,0,0.1,0c0.2,0,0.4,0.1,0.5,0.2
					c0,0,0,0.1,0.1,0.1c0.2,0.2,0.4,0.4,0.4,0.7c0.1,0.5,0.1,1,0,1.5c-0.1,0.3-0.2,0.6-0.4,0.8c0,0-0.1,0,0,0.1c0,0,0,0,0.1,0
					c0.3-0.1,0.5-0.1,0.8-0.2c0,0,0.1,0,0.2,0c-0.1,0-0.1-0.1-0.2-0.2c0,0,0-0.1-0.1-0.1c-0.2-0.1-0.3-0.3-0.3-0.6
					c0-0.3,0.1-0.6,0.1-0.8c0-0.3,0.1-0.5,0.1-0.8c0,0,0-0.1-0.1-0.1c0,0-0.1,0-0.1-0.1c0,0,0-0.1,0.1-0.1c0,0,0-0.1,0-0.1
					c0,0-0.1,0-0.1,0c0,0-0.1,0-0.1,0.1c0,0-0.1,0-0.1,0c0,0,0,0,0-0.1c0.1-0.2,0.2-0.4,0.5-0.5c0.3-0.1,0.5-0.1,0.7,0.2
					c0,0,0,0,0,0c0.2,0.1,0.3,0.3,0.3,0.5c0,0.4-0.1,0.9-0.1,1.3c0,0,0,0.1,0,0.1c0-0.1,0.1-0.1,0.1-0.2c0-0.1,0-0.3,0-0.4
					c0.1-0.6,0.1-1.2,0.2-1.8c0-0.1,0-0.1,0.1-0.1c0.2,0,0.3,0,0.5-0.1c0.1-0.1,0.2-0.1,0.3-0.2c0,0.1,0,0.3,0,0.4
					c0.1,0,0.2-0.1,0.3-0.2c0,0,0,0.1,0,0.1c0,0.2,0,0.3,0,0.5c-0.1,0.6-0.1,1.2-0.2,1.7c-0.1,0.5-0.1,1-0.2,1.4c0,0,0,0.1,0,0.1
					c0.3,0.1,0.5,0.4,0.7,0.6c0.2,0.2,0.4,0.5,0.4,0.8c0.1,0.1,0,0.2,0.1,0.3c0,0.2,0,0.4-0.1,0.6c0,0,0,0,0,0
					c0.6-0.4,1.1-0.9,1.5-1.5c0.4-0.6,0.8-1.3,0.9-2.1c0.1-0.8,0-1.5-0.4-2.2c0-0.1-0.1-0.1-0.1-0.2c0.1,0.1,0.1,0.2,0.2,0.2
					c0.3,0.5,0.6,1.1,0.6,1.7c0,0,0,0,0,0c0,0.2,0,0.4,0,0.7c0,0,0,0,0,0c-0.1,0.7-0.3,1.3-0.6,1.8c-0.5,0.8-1.2,1.5-1.9,2.1
					c-1.2,0.9-2.5,1.5-3.9,2c-0.1,0-0.2,0.1-0.3,0.1c-0.3,0.2-0.7,0.4-1.1,0.5c-0.6,0.2-1.3,0.3-1.9,0c0,0,0,0-0.1,0
					c-0.6,0.1-1.2,0.1-1.7,0.1c-0.1,0-0.1,0-0.1,0.1c-0.1,0.2-0.2,0.3-0.4,0.4c-0.6,0.5-1.3,0.8-2,0.9c-0.1,0-0.3,0-0.4,0.1
					c-0.2,0-0.5,0-0.7,0c0,0,0,0,0.1-0.1c0.3-0.1,0.7-0.2,0.9-0.5c0.3-0.1,0.6-0.1,0.8-0.3c0.5-0.2,1-0.5,1.3-1c0,0,0.1-0.1,0.1-0.1
					c0.4,0,0.8,0,1.1,0c0.1,0,0.3,0,0.4,0c-0.2-0.1-0.3-0.3-0.4-0.4c0-0.1-0.1-0.2-0.1-0.3c-0.1-0.3-0.1-0.6,0-0.9
					c0.3-0.9,0.8-1.6,1.5-2.2c0.6-0.5,1.2-0.8,1.9-1c0.2-0.1,0.4-0.1,0.6-0.2c-0.2-0.1-0.2-0.1-0.5-0.3c0,0.1,0,0.2-0.1,0.4
					c0,0,0,0.1-0.1,0.1c-0.2-0.1-0.5,0-0.7,0.2c0,0-0.1,0-0.1,0.1c0-0.1,0-0.3,0-0.4c-0.1,0-0.2,0.1-0.3,0.1c0-0.1,0-0.2,0-0.3
					c0,0,0,0,0,0.1c-0.1,0.2-0.2,0.4-0.3,0.5c-0.2,0.2-0.4,0.3-0.7,0.1c-0.1-0.1-0.2-0.1-0.3-0.2c0,0.1,0,0.2,0,0.3c0,0,0,0.1,0,0.1
					c0,0-0.1,0-0.1,0c0,0-0.1,0-0.1,0c-0.2,0-0.3,0.1-0.5,0.2c0,0-0.1,0.1-0.1,0c0-0.1,0-0.3,0-0.4c-0.1,0.1-0.2,0.1-0.2,0.1
					c0,0.1-0.1,0.2-0.2,0.3c-0.3,0.3-0.7,0.4-1,0c-0.1,0.1-0.2,0.2-0.3,0.3c-0.2,0.2-0.7,0.3-0.9-0.1c0,0,0,0-0.1,0
					c-0.1-0.1-0.2-0.1-0.2-0.2c-0.1-0.2-0.1-0.4-0.1-0.6c0-0.1,0-0.2,0-0.3c-0.1,0.2-0.2,0.3-0.3,0.4c0,0,0,0.1,0,0.1
					c0,0.3,0,0.6,0,0.9c0,0.5-0.1,1-0.2,1.5c-0.1,0.4-0.2,0.8-0.4,1.2c0,0.1-0.1,0.2-0.1,0.2c-0.1,0.1-0.2,0.3-0.3,0.4
					c0,0,0,0,0.1,0c0.2,0.1,0.5,0.1,0.7,0.1c0,0,0.1,0,0.1,0.1c0,0.1,0.1,0.2,0.1,0.3c-0.4-0.1-0.8-0.2-1.1-0.3c0,0-0.1,0-0.1,0
					c-0.5,0.5-1.1,0.8-1.8,0.9c-0.5,0.1-1.1,0-1.5-0.3c-0.2-0.1-0.3-0.3-0.5-0.4c-0.2-0.1-0.3-0.3-0.4-0.5c-0.3-0.5-0.3-1.1-0.1-1.6
					c0.1-0.3,0.2-0.5,0.4-0.8c0.1-0.1,0.2-0.2,0.3-0.3c0.1-0.1,0.1-0.1,0.2-0.2c0,0,0,0,0,0c0.3-0.2,0.6-0.2,0.9-0.2
					c0.2,0,0.3,0,0.4,0.2c0.1,0.1,0.2,0.2,0.3,0.3c0.1,0.1,0.1,0.2,0,0.3c0,0-0.1,0-0.1,0.1c-0.2,0.1-0.3,0.3-0.3,0.6
					c0,0,0,0.1,0,0.1c0,0.1,0,0.3,0.2,0.3c0.2,0.1,0.4,0.1,0.7,0c0.2-0.1,0.4-0.2,0.6-0.3c0.5-0.4,0.8-1,1-1.6
					c0-0.1,0.1-0.2,0.1-0.2c-0.3,0.1-0.5,0.2-0.8,0.3c-0.4,0.1-0.8,0-1.1-0.2c-0.1-0.1-0.2-0.2-0.3-0.3c-0.3-0.2-0.5-0.6-0.6-0.9
					c0-0.1,0-0.1-0.1-0.1c-0.5,0.1-1,0.2-1.6,0.1c-0.1,0-0.2,0-0.2-0.1c-0.1-0.1-0.3-0.1-0.4-0.2c-0.1-0.1-0.2-0.2-0.3-0.3
					c-0.2-0.2-0.4-0.4-0.5-0.7c0-0.1,0-0.2-0.1-0.3C136.5,320.3,136.5,320.2,136.5,320z M153.3,324.3c-0.1-0.2-0.1-0.4,0-0.6
					c0-0.1,0-0.1,0.1-0.2c0,0,0.1,0,0.1,0.1c0,0,0,0,0,0c0.1,0.1,0.3,0,0.3-0.1c0,0,0-0.1,0-0.1c0-0.3-0.1-0.5-0.2-0.7c0,0,0,0,0,0
					c0,0-0.1,0-0.1,0c-0.1,0.5-0.3,0.9-0.5,1.4c-0.1,0.2-0.2,0.4-0.3,0.7c-0.1,0.1-0.2,0.3-0.3,0.4c-0.2,0.2-0.4,0.5-0.5,0.7
					c0.7-0.2,1.3-0.6,2-1c-0.1-0.1-0.2-0.3-0.3-0.3C153.3,324.4,153.3,324.4,153.3,324.3z M142.6,322.5c0,0.2-0.1,0.4-0.1,0.7
					c-0.2,0.7-0.5,1.3-0.9,1.8c-0.3,0.3-0.7,0.6-1.1,0.6c-0.7,0.1-1-0.5-0.9-1c0.1-0.3,0.2-0.4,0.4-0.6c0.1,0,0.1-0.1,0-0.1
					c-0.1-0.1-0.1-0.1-0.2-0.1c-0.5-0.1-0.9,0-1.2,0.4c-0.5,0.5-0.7,1-0.7,1.7c0,1,0.7,1.8,1.7,1.8c0.5,0,1-0.1,1.5-0.4
					c0.7-0.4,1.1-0.9,1.5-1.6c0.4-0.8,0.5-1.6,0.6-2.4c0-0.3,0-0.7,0.1-1c0-0.1,0-0.2,0.1-0.2c0.3-0.4,0.5-0.8,0.7-1.2
					c0-0.2,0.1-0.3,0-0.5c0-0.2-0.1-0.2-0.2-0.2c-0.1,0-0.2,0.1-0.3,0.2c-0.3,0.3-0.5,0.8-0.6,1.2c0,0,0,0.1-0.1,0.1
					c-0.2,0.1-0.4,0.2-0.7,0.2c-0.4,0-0.8-0.1-1-0.6c-0.1-0.1-0.1-0.3-0.2-0.4c0-0.1,0-0.1,0.1-0.1c1-0.7,1.9-1.4,2.6-2.4
					c0.4-0.5,0.7-1,0.8-1.5c0.1-0.4,0.2-0.8,0.1-1.1c-0.1-0.3-0.3-0.5-0.6-0.4c-0.2,0-0.4,0.1-0.5,0.1c-0.5,0.2-0.9,0.6-1.3,1
					c-0.6,0.7-1.1,1.4-1.6,2.2c-0.4,0.7-0.7,1.4-0.8,2.1c0,0,0,0.1-0.1,0.1c-0.3,0-0.5,0-0.8-0.1c-0.2-0.1-0.4-0.2-0.5-0.4
					c-0.2-0.4,0-0.9,0.4-1.1c0.1,0,0.1-0.1,0-0.1c-0.1-0.2-0.5-0.4-0.7-0.3c-0.3,0.1-0.7,0.2-0.9,0.5c-0.3,0.3-0.4,0.7-0.4,1.1
					c0,0.8,0.5,1.3,1.3,1.4c0.6,0.1,1.1,0,1.6-0.2c0.1,0,0.1,0,0.1,0.1c0.1,0.4,0.2,0.7,0.4,1.1c0.3,0.4,0.7,0.5,1.1,0.5
					c0.3,0,0.5-0.1,0.8-0.2C142.2,322.8,142.4,322.6,142.6,322.5z M151.5,318.6c0.2,0,0.2,0.1,0.3,0.2c0,0.1,0,0.2,0,0.3
					c0,0.4-0.1,0.8-0.1,1.1c0,0.2-0.1,0.4,0,0.6c0,0.3,0.3,0.5,0.6,0.4c0.2-0.1,0.3-0.2,0.4-0.3c0.1-0.1,0.1-0.1,0.2-0.2
					c0,0,0,0,0,0.1c0,0.3,0,0.6,0,0.8c0,0.1,0,0.1-0.1,0.1c-0.3,0-0.7,0-1,0.1c-0.9,0.2-1.7,0.4-2.5,0.8c-0.8,0.4-1.4,0.9-1.9,1.7
					c-0.3,0.5-0.5,0.9-0.6,1.5c-0.1,0.6,0.3,1.2,0.9,1.3c0.4,0.1,0.7,0.1,1.1,0c0.6-0.1,1.1-0.3,1.5-0.6c0.9-0.6,1.5-1.4,2-2.2
					c0.4-0.6,0.7-1.3,0.8-2c0-0.1,0-0.1,0.1,0c0.1,0.1,0.2,0.2,0.3,0.3c0.2,0.3,0.4,0.6,0.4,0.9c0,0.3-0.2,0.5-0.5,0.3
					c0,0-0.1,0-0.1,0c-0.1,0.2,0,0.5,0.1,0.7c0.1,0.1,0.2,0.2,0.4,0.1c0.1-0.1,0.2-0.2,0.3-0.3c0.2-0.3,0.3-0.7,0.2-1.1
					c-0.1-0.6-0.5-1-1.1-1.2c-0.1,0-0.1-0.1-0.1-0.1c0.1-0.4,0.1-0.8,0.2-1.2c0.1-0.6,0.1-1.3,0.2-1.9c0-0.2,0-0.4,0.1-0.6
					c0,0,0,0,0,0c0,0,0,0-0.1,0c-0.1,0.1-0.3,0.1-0.5,0.1c-0.1,0-0.1,0-0.1,0.1c-0.1,0.7-0.1,1.3-0.2,2c0,0.2-0.1,0.4-0.3,0.5
					c-0.1,0.1-0.2,0-0.3-0.1c0-0.1,0-0.2,0-0.3c0-0.3,0.1-0.7,0.1-1c0-0.2,0.1-0.5,0-0.7c0-0.2-0.2-0.4-0.4-0.4
					C151.8,318.3,151.6,318.4,151.5,318.6z M147.4,319.5c0-0.1,0-0.1,0-0.2c0-0.2,0.1-0.4,0.1-0.7c0-0.1,0-0.1,0.1-0.1
					c0.4-0.2,0.7-0.5,1-0.8c0.3-0.3,0.6-0.6,0.7-0.9c0.1-0.2,0.1-0.3,0.1-0.5c0-0.1-0.1-0.2-0.2-0.2c-0.1,0-0.1,0-0.2,0
					c-0.3,0-0.5,0.2-0.7,0.4c-0.6,0.5-1,1.1-1.2,1.8c-0.1,0.2-0.1,0.2-0.3,0.3c-0.2,0.1-0.5,0.1-0.7,0c-0.3-0.1-0.3-0.4-0.2-0.6
					c0.1-0.1,0.1-0.1,0-0.2c0,0-0.1,0-0.1,0c-0.3,0-0.6,0.2-0.7,0.6c0,0.3,0.1,0.7,0.5,0.8c0.3,0.1,0.5,0,0.8,0
					c0.2-0.1,0.4-0.1,0.6-0.2c-0.1,1.1-0.2,2.3-0.3,3.4c0.2-0.1,0.3-0.2,0.5-0.1c0.1,0,0.1,0,0.1-0.1c0-0.2,0.1-0.3,0.1-0.5
					c0.1,0.1,0.1,0.2,0.2,0.3c0.2,0.2,0.5,0.2,0.8-0.1c0.1-0.1,0.1-0.2,0.2-0.3c0.2-0.5,0.3-1,0.2-1.6c0-0.2-0.1-0.5-0.2-0.7
					c-0.2-0.3-0.5-0.3-0.7-0.1C147.6,319.4,147.5,319.4,147.4,319.5z M149.9,319c0-0.1,0-0.1,0-0.2c0-0.2,0.1-0.5,0.1-0.7
					c0,0,0-0.1,0.1-0.1c0.2-0.1,0.4-0.3,0.6-0.4c0.4-0.3,0.8-0.7,1.1-1.2c0.1-0.2,0.2-0.3,0.2-0.5c0-0.2-0.1-0.3-0.3-0.3
					c-0.3,0-0.6,0.2-0.9,0.4c-0.6,0.6-1,1.3-1.2,2c-0.1,0.4-0.1,0.8-0.2,1.2c-0.1,0.7-0.1,1.5-0.2,2.2c0,0.1,0,0.2,0,0.3
					c0.2-0.1,0.3-0.1,0.5-0.1c0.1,0,0.1,0,0.1-0.1c0-0.2,0.1-0.3,0.1-0.5c0,0.1,0.1,0.1,0.1,0.2c0.1,0.1,0.1,0.2,0.2,0.2
					c0.2,0.1,0.4,0.1,0.6-0.1c0.1-0.1,0.1-0.2,0.2-0.3c0.2-0.5,0.3-1,0.2-1.5c0-0.3-0.1-0.6-0.3-0.8c-0.2-0.3-0.5-0.3-0.7-0.1
					C150,318.8,150,318.9,149.9,319z M145.4,320.1c-0.1,0-0.1-0.1-0.2-0.1c-0.1-0.1-0.2-0.1-0.4-0.1c-0.1,0-0.1,0.1-0.2,0.1
					c-0.1,0.1-0.2,0.2-0.3,0.4c-0.3,0.6-0.5,1.2-0.5,1.8c0,0.2,0,0.4,0.1,0.6c0.1,0.2,0.3,0.3,0.5,0.2c0.2,0,0.3-0.1,0.4-0.3
					c0.1-0.1,0.2-0.2,0.3-0.3c0,0,0,0.1,0,0.1c0.1,0.2,0.3,0.4,0.5,0.3c0.3-0.1,0.6-0.4,0.6-0.8c-0.3,0.1-0.4,0-0.4-0.3
					c0,0,0-0.1,0-0.1c0-0.5,0.1-0.9,0.1-1.4c0-0.2,0-0.3,0-0.5c-0.2,0.1-0.4,0.2-0.6,0.1c0,0,0,0,0,0
					C145.4,320,145.4,320.1,145.4,320.1z M149,320.4c0.1-0.6,0.1-1.1,0.2-1.7c0-0.3,0.1-0.6,0.2-1c0-0.1,0.1-0.2,0.1-0.3
					c-0.1,0.1-0.1,0.1-0.2,0.2c-0.4,0.5-0.9,0.9-1.4,1.2c0,0,0,0-0.1,0c0,0,0,0,0,0.1c0,0,0,0,0.1,0c0.2,0,0.3,0,0.4,0.2
					c0.1,0.1,0.1,0.1,0.2,0.2c0.1,0.1,0.2,0.2,0.3,0.4C149,320,149,320.2,149,320.4z M146.4,319.8c0,0.7-0.1,1.4-0.2,2.1
					c0.1-0.1,0.1-0.1,0.2-0.1c0,0.1,0,0.3-0.1,0.4c0,0.1,0,0.1,0.1,0.1c0,0,0.1,0,0.1-0.1c0-0.2,0-0.5,0.1-0.7
					c0-0.4,0.1-0.9,0.1-1.3c0-0.2,0-0.4,0-0.6c-0.2,0-0.3,0.1-0.5,0.1c0,0,0,0-0.1,0c0,0.1,0,0.2,0,0.3
					C146.3,319.9,146.3,319.8,146.4,319.8z M148.6,318c0.3-0.2,0.6-0.4,0.7-0.8C149.1,317.5,148.9,317.7,148.6,318z M151.6,316.7
					c-0.2,0.2-0.3,0.4-0.5,0.6C151.4,317.1,151.6,316.9,151.6,316.7z M152.5,321.6c0.2,0,0.2,0,0.2-0.1
					C152.6,321.5,152.5,321.5,152.5,321.6z"/>
				<path fill="#282121" d="M154.2,316c0.1-0.1,0.2-0.2,0.3-0.2c0.2,0,0.3,0,0.4,0.2c0,0,0,0.1,0.1,0.1c0.1,0,0.1,0.1,0.2,0.2
					c0.1,0.1,0.1,0.2,0,0.4c0,0.1-0.1,0.2-0.1,0.4c0,0.1-0.1,0.1-0.1,0.2c0,0-0.1,0.1-0.1,0.1c0.1,0,0.1,0,0.2-0.1
					c0.1,0,0.3,0,0.4,0c0,0,0,0,0,0c0.2,0,0.3,0.1,0.4,0.3c0,0,0,0,0,0c0.2,0.1,0.3,0.3,0.3,0.5c0,0.1,0,0.2-0.1,0.3
					c-0.1,0.1-0.3,0.2-0.5,0.1c0-0.1-0.1-0.1-0.1-0.1c0-0.1-0.1-0.1-0.2-0.2c0,0.1,0,0.2,0.1,0.2c0.1,0,0.1,0.1,0.2,0.1
					c0.1,0.1,0.2,0.2,0.3,0.3c0.3,0.2,0.4,0.6,0.4,0.9c0,0.6-0.5,1.1-1.1,1.2c-0.4,0.1-0.7,0-1-0.4c0,0,0,0-0.1,0
					c-0.2-0.2-0.3-0.4-0.3-0.7c0.1-0.3,0.3-0.5,0.6-0.5c0.1,0,0.1,0,0.1,0.1c0,0,0,0.1,0,0.2c0,0.1,0,0.1,0.1,0.1c0.1,0,0.1,0,0.2,0
					c0,0,0,0.1,0,0.1c0.1,0,0.2-0.1,0.2-0.2c0-0.1,0-0.3-0.1-0.4c-0.1-0.1-0.2-0.2-0.3-0.3c-0.3-0.3-0.3-0.7-0.1-1.1
					c0-0.1,0.1-0.1,0.2-0.2c0,0,0,0-0.1,0c-0.2,0-0.3,0-0.4-0.2c0,0,0,0-0.1,0c-0.1,0-0.2-0.1-0.2-0.2c0-0.1,0-0.1,0.1-0.1
					c0,0,0,0,0.1,0c0.1,0,0.1,0,0.1-0.1c0-0.1,0-0.1-0.1-0.1c0,0,0,0,0,0c-0.1-0.1-0.1-0.2-0.1-0.3
					C154.1,316.3,154.1,316.1,154.2,316z M154.4,319.5c-0.3,0.1-0.4,0.4-0.4,0.6c0.1,0.3,0.3,0.5,0.6,0.5c0.6,0,1.1-0.3,1.3-0.9
					c0.1-0.4,0-0.9-0.5-1.2c-0.1,0-0.2-0.1-0.2-0.1c-0.2-0.1-0.3-0.3-0.2-0.5c0-0.2,0.1-0.3,0.3-0.3c0.1,0,0.2,0,0.2,0.1
					c0.1,0.1,0,0.1-0.1,0.2c-0.1,0.1-0.1,0.2,0,0.2c0,0.1,0.1,0.1,0.2,0.1c0.2,0,0.3-0.2,0.3-0.4c0-0.2-0.1-0.4-0.4-0.4
					c-0.3-0.1-0.6,0-0.8,0.3c-0.2,0.3-0.3,0.7,0,1c0.1,0.1,0.2,0.2,0.3,0.3c0.1,0.1,0.2,0.3,0.2,0.5c0,0.2-0.2,0.4-0.4,0.4
					C154.5,319.8,154.4,319.7,154.4,319.5C154.4,319.5,154.4,319.5,154.4,319.5z M154.1,317.1c0,0.1,0.1,0.1,0.1,0.1
					c0.1,0,0.1,0,0.2-0.1c0.3-0.2,0.5-0.7,0.3-1c-0.1-0.2-0.2-0.2-0.4-0.1c0,0-0.1,0.1-0.1,0.1c-0.1,0.2-0.2,0.3-0.1,0.5
					c0,0.1,0.1,0.1,0.1,0.2c0,0,0,0,0,0.1C154.4,316.9,154.4,317,154.1,317.1z"/>
				<path fill="#FFFFFF" d="M142.6,322.5c-0.2,0.2-0.4,0.3-0.7,0.4c-0.3,0.1-0.5,0.2-0.8,0.2c-0.5,0.1-0.8-0.1-1.1-0.5
					c-0.2-0.3-0.4-0.7-0.4-1.1c0-0.1,0-0.1-0.1-0.1c-0.5,0.2-1.1,0.3-1.6,0.2c-0.8-0.1-1.2-0.6-1.3-1.4c0-0.4,0.1-0.8,0.4-1.1
					c0.3-0.3,0.6-0.4,0.9-0.5c0.2-0.1,0.6,0.1,0.7,0.3c0,0.1,0.1,0.1,0,0.1c-0.4,0.2-0.6,0.7-0.4,1.1c0.1,0.2,0.3,0.3,0.5,0.4
					c0.3,0.1,0.5,0.1,0.8,0.1c0,0,0.1,0,0.1-0.1c0.1-0.8,0.5-1.5,0.8-2.1c0.4-0.8,1-1.6,1.6-2.2c0.4-0.4,0.8-0.7,1.3-1
					c0.2-0.1,0.3-0.1,0.5-0.1c0.3,0,0.6,0.1,0.6,0.4c0.1,0.4,0.1,0.8-0.1,1.1c-0.2,0.6-0.5,1.1-0.8,1.5c-0.7,1-1.6,1.7-2.6,2.4
					c-0.1,0-0.1,0.1-0.1,0.1c0,0.1,0.1,0.3,0.2,0.4c0.2,0.4,0.6,0.6,1,0.6c0.2,0,0.5-0.1,0.7-0.2c0,0,0.1,0,0.1-0.1
					c0.1-0.5,0.2-0.9,0.6-1.2c0.1-0.1,0.2-0.1,0.3-0.2c0.2-0.1,0.2,0,0.2,0.2c0,0.2,0,0.3,0,0.5c-0.1,0.5-0.4,0.9-0.7,1.2
					c-0.1,0.1-0.1,0.1-0.1,0.2c0,0.3,0,0.7-0.1,1c-0.1,0.8-0.2,1.6-0.6,2.4c-0.3,0.7-0.8,1.3-1.5,1.6c-0.5,0.3-1,0.4-1.5,0.4
					c-1,0-1.7-0.8-1.7-1.8c0-0.7,0.2-1.2,0.7-1.7c0.4-0.3,0.8-0.5,1.2-0.4c0.1,0,0.2,0.1,0.2,0.1c0,0,0,0.1,0,0.1
					c-0.2,0.1-0.4,0.3-0.4,0.6c-0.1,0.5,0.2,1.1,0.9,1c0.5,0,0.8-0.3,1.1-0.6c0.5-0.5,0.7-1.1,0.9-1.8
					C142.6,322.9,142.6,322.7,142.6,322.5z M140.8,320.2C140.8,320.2,140.8,320.2,140.8,320.2c0.7-0.4,1.3-0.8,1.8-1.4
					c0.3-0.3,0.5-0.7,0.7-1.1c0.1-0.3,0.1-0.7,0-1c-0.1-0.2-0.2-0.3-0.4-0.3c-0.2,0-0.3,0.1-0.5,0.2c-0.2,0.1-0.4,0.4-0.6,0.6
					c-0.5,0.7-0.8,1.5-1,2.4C140.8,319.7,140.8,320,140.8,320.2z"/>
				<path fill="#FFFFFF" d="M151.5,318.6c0.1-0.2,0.3-0.3,0.5-0.3c0.2,0,0.4,0.1,0.4,0.4c0,0.2,0,0.5,0,0.7c0,0.3-0.1,0.7-0.1,1
					c0,0.1,0,0.2,0,0.3c0,0.1,0.1,0.2,0.3,0.1c0.2-0.1,0.3-0.3,0.3-0.5c0.1-0.7,0.1-1.3,0.2-2c0-0.1,0-0.1,0.1-0.1
					c0.2,0,0.3,0,0.5-0.1c0,0,0,0,0.1,0c0,0,0,0,0,0c0,0.2,0,0.4-0.1,0.6c-0.1,0.6-0.1,1.3-0.2,1.9c0,0.4-0.1,0.8-0.2,1.2
					c0,0.1,0,0.1,0.1,0.1c0.6,0.2,1,0.6,1.1,1.2c0.1,0.4,0,0.8-0.2,1.1c-0.1,0.1-0.2,0.2-0.3,0.3c-0.2,0.1-0.3,0.1-0.4-0.1
					c-0.2-0.2-0.2-0.4-0.1-0.7c0,0,0-0.1,0.1,0c0.3,0.2,0.5,0,0.5-0.3c0-0.4-0.1-0.7-0.4-0.9c-0.1-0.1-0.2-0.2-0.3-0.3
					c0,0-0.1,0-0.1,0c-0.2,0.7-0.5,1.4-0.8,2c-0.5,0.9-1.1,1.7-2,2.2c-0.5,0.3-1,0.5-1.5,0.6c-0.4,0.1-0.7,0.1-1.1,0
					c-0.6-0.1-1-0.7-0.9-1.3c0-0.6,0.3-1,0.6-1.5c0.5-0.7,1.1-1.3,1.9-1.7c0.8-0.4,1.6-0.7,2.5-0.8c0.3-0.1,0.6-0.1,1-0.1
					c0.1,0,0.1,0,0.1-0.1c0-0.3,0-0.6,0-0.8c0,0,0-0.1,0-0.1c-0.1,0.1-0.1,0.1-0.2,0.2c-0.1,0.1-0.3,0.2-0.4,0.3
					c-0.3,0.1-0.5,0-0.6-0.4c0-0.2,0-0.4,0-0.6c0-0.4,0.1-0.8,0.1-1.1c0-0.1,0-0.2,0-0.3C151.7,318.7,151.6,318.6,151.5,318.6z
					 M149.7,325.4c0.7,0,1.4-0.3,1.9-0.9c0.6-0.7,0.9-1.4,1.1-2.3c0-0.3,0-0.3-0.2-0.3c-0.4-0.1-0.8,0-1.3,0.1
					c-0.7,0.2-1.3,0.4-1.9,0.8c-0.5,0.4-0.8,0.8-0.9,1.4c0,0.5,0.2,0.9,0.6,1C149.2,325.4,149.4,325.4,149.7,325.4z"/>
				<path fill="#FFFFFF" d="M147.4,319.5c0.1-0.1,0.1-0.2,0.2-0.3c0.3-0.2,0.5-0.2,0.7,0.1c0.1,0.2,0.2,0.4,0.2,0.7
					c0.1,0.5,0,1.1-0.2,1.6c0,0.1-0.1,0.2-0.2,0.3c-0.2,0.3-0.5,0.3-0.8,0.1c-0.1-0.1-0.2-0.2-0.2-0.3c0,0.2-0.1,0.3-0.1,0.5
					c0,0.1,0,0.1-0.1,0.1c-0.2,0-0.3,0-0.5,0.1c0.1-1.2,0.2-2.3,0.3-3.4c-0.2,0.1-0.4,0.2-0.6,0.2c-0.3,0.1-0.5,0.1-0.8,0
					c-0.4-0.1-0.5-0.5-0.5-0.8c0-0.3,0.4-0.6,0.7-0.6c0,0,0.1,0,0.1,0c0.1,0,0.1,0.1,0,0.2c-0.2,0.2-0.1,0.5,0.2,0.6
					c0.3,0.1,0.5,0,0.7,0c0.2,0,0.2-0.1,0.3-0.3c0.3-0.7,0.6-1.3,1.2-1.8c0.2-0.2,0.5-0.3,0.7-0.4c0.1,0,0.1,0,0.2,0
					c0.1,0,0.2,0.1,0.2,0.2c0,0.2,0,0.4-0.1,0.5c-0.2,0.4-0.4,0.7-0.7,0.9c-0.3,0.3-0.6,0.5-1,0.8c0,0-0.1,0-0.1,0.1
					c0,0.2-0.1,0.4-0.1,0.7C147.4,319.4,147.4,319.5,147.4,319.5z M147.6,318.3c0.2-0.1,0.4-0.2,0.6-0.4c0.3-0.2,0.6-0.4,0.8-0.7
					c0.1-0.1,0.1-0.3,0.1-0.4c0-0.2-0.1-0.3-0.3-0.3c-0.2,0-0.3,0.1-0.4,0.2c-0.3,0.3-0.5,0.6-0.6,0.9
					C147.8,317.9,147.7,318.1,147.6,318.3z M147.3,320.7c0,0.1,0,0.3,0,0.4c0,0,0,0.1,0,0.1c0.1,0.2,0.2,0.2,0.4,0.1
					c0.1-0.1,0.1-0.2,0.2-0.3c0.1-0.4,0.2-0.7,0.2-1.1c0-0.1,0-0.2,0-0.3c0-0.1-0.1-0.2-0.2-0.2c-0.1,0-0.2,0-0.3,0.1
					c-0.1,0.1-0.1,0.2-0.1,0.3C147.4,320.2,147.4,320.4,147.3,320.7z"/>
				<path fill="#FFFFFF" d="M149.9,319c0.1-0.1,0.1-0.2,0.2-0.3c0.3-0.3,0.5-0.2,0.7,0.1c0.2,0.2,0.2,0.5,0.3,0.8
					c0.1,0.5,0,1.1-0.2,1.5c0,0.1-0.1,0.2-0.2,0.3c-0.2,0.2-0.4,0.2-0.6,0.1c-0.1-0.1-0.2-0.1-0.2-0.2c0,0-0.1-0.1-0.1-0.2
					c0,0.2-0.1,0.3-0.1,0.5c0,0.1,0,0.1-0.1,0.1c-0.2,0-0.3,0-0.5,0.1c0-0.1,0-0.2,0-0.3c0.1-0.7,0.1-1.5,0.2-2.2
					c0-0.4,0-0.8,0.2-1.2c0.2-0.8,0.6-1.5,1.2-2c0.2-0.2,0.5-0.4,0.9-0.4c0.2,0,0.3,0.1,0.3,0.3c0,0.2-0.1,0.4-0.2,0.5
					c-0.3,0.5-0.7,0.8-1.1,1.2c-0.2,0.1-0.4,0.3-0.6,0.4c0,0-0.1,0-0.1,0.1c0,0.2-0.1,0.5-0.1,0.7
					C149.9,318.8,149.9,318.9,149.9,319z M150.1,317.7C150.1,317.7,150.1,317.7,150.1,317.7c0.4-0.2,0.9-0.5,1.2-0.8
					c0.1-0.2,0.3-0.3,0.3-0.5c0-0.1,0.1-0.3-0.1-0.4c-0.1-0.1-0.3,0-0.4,0c-0.2,0.1-0.3,0.2-0.4,0.3
					C150.4,316.7,150.2,317.2,150.1,317.7C150.1,317.7,150.1,317.7,150.1,317.7C150.1,317.7,150.1,317.7,150.1,317.7
					C150.1,317.7,150.1,317.7,150.1,317.7C150.1,317.7,150.1,317.7,150.1,317.7z M149.8,320.2c0,0.2,0,0.4,0.1,0.5
					c0.1,0.2,0.2,0.2,0.4,0.1c0.1-0.1,0.1-0.2,0.2-0.2c0.1-0.4,0.2-0.7,0.2-1.1c0-0.1,0-0.2,0-0.4c-0.1-0.2-0.3-0.2-0.4-0.1
					c-0.1,0.1-0.1,0.2-0.2,0.3C149.8,319.5,149.8,319.9,149.8,320.2z"/>
				<path fill="#FFFFFF" d="M145.4,320.1c0-0.1,0-0.2,0-0.2c0,0,0-0.1,0,0c0.2,0,0.4-0.1,0.6-0.1c0,0.2,0,0.3,0,0.5
					c0,0.5-0.1,0.9-0.1,1.4c0,0,0,0.1,0,0.1c0,0.3,0.1,0.3,0.4,0.3c0,0.3-0.3,0.7-0.6,0.8c-0.2,0.1-0.4,0-0.5-0.3c0,0,0,0,0-0.1
					c-0.1,0.1-0.2,0.2-0.3,0.3c-0.1,0.1-0.2,0.2-0.4,0.3c-0.2,0.1-0.4,0-0.5-0.2c-0.1-0.2-0.1-0.4-0.1-0.6c0-0.6,0.2-1.2,0.5-1.8
					c0.1-0.1,0.2-0.3,0.3-0.4c0.1-0.1,0.1-0.1,0.2-0.1c0.1-0.1,0.3-0.1,0.4,0.1C145.3,320,145.4,320.1,145.4,320.1z M145.3,320.9
					c0-0.1,0-0.3-0.1-0.5c-0.1-0.2-0.2-0.2-0.4-0.1c-0.1,0.1-0.2,0.2-0.2,0.3c-0.1,0.4-0.1,0.8-0.1,1.2c0,0.1,0,0.3,0.1,0.4
					c0.1,0.1,0.2,0.2,0.4,0c0.1-0.1,0.1-0.2,0.1-0.3C145.3,321.6,145.3,321.2,145.3,320.9z"/>
				<path fill="#FFFFFF" d="M150.9,315.7c-0.4-0.1-0.8-0.1-1.3-0.1c-0.6,0-1.1,0-1.7,0c-0.4,0-0.9,0.1-1.3,0.1
					c-0.4,0.1-0.8,0.1-1.2,0.2c-0.2,0-0.4,0.1-0.6,0.2c0-0.1,0-0.2,0-0.2c0.2-0.1,0.5-0.1,0.8-0.2c0.2,0,0.5-0.1,0.7-0.1
					c0.4-0.1,0.7-0.1,1.1-0.1c0.5-0.1,1.1-0.1,1.6-0.1c0.6,0,1.2,0,1.8,0.1c0.2,0,0.4,0,0.5,0.1C151.2,315.6,151,315.6,150.9,315.7z
					"/>
				<path fill="#FFFFFF" d="M146.7,326.5c-0.5,0-1,0.1-1.5,0.1c0,0-0.1,0-0.1,0.1c-0.3,0.6-0.8,1-1.4,1.3c0,0-0.1,0-0.1,0.1
					c-0.1,0-0.1,0-0.2,0c-0.1-0.1,0-0.1,0-0.2c0.1-0.1,0.2-0.2,0.2-0.3c0.1-0.2,0.1-0.4,0-0.6c0-0.1-0.1-0.2-0.2-0.4
					c0,0-0.1-0.1-0.1-0.1c-0.3,0-0.5-0.1-0.8-0.1c0-0.1,0.1-0.2,0.1-0.2c0.2,0.1,0.5,0.1,0.7,0.1c0.1,0,0.2,0.1,0.3,0.2
					c0.2,0.3,0.3,0.6,0.3,1c0,0.1,0,0.1,0,0.2c0.1,0,0.1-0.1,0.2-0.1c0.4-0.3,0.7-0.6,0.9-1c0-0.1,0.1-0.1,0.1-0.1c0.3,0,0.6,0,1,0
					c0.2,0,0.4,0,0.6,0C146.7,326.3,146.7,326.4,146.7,326.5z"/>
				<path fill="#FFFFFF" d="M154.7,323.2c0.1,0,0.1-0.1,0.2-0.1c0.6-0.5,1.1-1.1,1.4-1.9c0.2-0.5,0.3-1,0.3-1.5
					c0-0.4-0.2-0.9-0.4-1.3c0,0,0-0.1,0-0.1c0.1-0.1,0.1-0.2,0.1-0.3c0.1,0.1,0.2,0.3,0.2,0.4c0.3,0.6,0.4,1.3,0.3,2
					c-0.1,0.6-0.3,1.1-0.7,1.6c-0.3,0.5-0.8,1-1.2,1.4c0,0,0,0,0,0C154.8,323.4,154.8,323.3,154.7,323.2z"/>
				<path fill="#FFFFFF" d="M140.6,318c-0.1,0-0.1,0.1-0.1,0.1c-0.5,0.3-1,0.7-1.4,1.2c0,0,0,0,0,0c0-0.1-0.1-0.1-0.1-0.2
					c0.1-0.2,0.3-0.3,0.4-0.4c0.5-0.4,1-0.8,1.5-1.1c0,0,0-0.1,0.1,0C140.8,317.6,140.7,317.8,140.6,318z"/>
				<path fill="#FFFFFF" d="M154.2,316.7c-0.1,0-0.3-0.1-0.4-0.2c-0.4-0.2-0.9-0.4-1.3-0.5c-0.1,0-0.2-0.1-0.3-0.1
					c0-0.1-0.1-0.2-0.2-0.2c-0.1,0,0-0.1-0.1-0.1c0.5,0.1,0.9,0.2,1.4,0.4c0.3,0.1,0.5,0.2,0.7,0.3c0,0,0,0,0,0
					C154.1,316.5,154.1,316.6,154.2,316.7z"/>
				<path fill="#FFFFFF" d="M138.4,324c-0.1-0.2-0.3-0.4-0.4-0.6c-0.2-0.4-0.3-0.8-0.3-1.3c0,0,0-0.1,0-0.1c0.1,0,0.2,0,0.2,0.1
					c0,0.6,0.3,1.2,0.6,1.7c0,0,0,0,0.1,0C138.6,323.9,138.5,323.9,138.4,324z"/>
				<path fill="#FFFFFF" d="M152.6,324.7c0.2-0.1,0.4-0.2,0.6-0.3c0,0,0.1,0,0.1-0.1c0,0.1,0.1,0.1,0.1,0.2
					c-0.2,0.1-0.4,0.2-0.6,0.3c-0.2,0.1-0.3,0.2-0.5,0.2C152.4,324.9,152.5,324.8,152.6,324.7z"/>
				<path fill="#FFFFFF" d="M139.9,324.9c0.2,0.2,0.5,0.3,0.8,0.4c0,0,0.1,0,0.1,0c-0.2,0.1-0.4,0.1-0.7,0c-0.2-0.1-0.2-0.2-0.2-0.3
					C139.9,325,139.9,325,139.9,324.9z"/>
				<path fill="#FFFFFF" d="M138.8,319.6c-0.1,0.1-0.2,0.3-0.3,0.4C138.6,319.8,138.7,319.7,138.8,319.6z"/>
				<path fill="#FFFFFF" d="M154.4,319.5C154.4,319.5,154.4,319.5,154.4,319.5c0,0.2,0.1,0.3,0.3,0.3c0.2,0,0.4-0.2,0.4-0.4
					c0-0.2,0-0.3-0.2-0.5c-0.1-0.1-0.2-0.2-0.3-0.3c-0.3-0.3-0.2-0.7,0-1c0.2-0.3,0.5-0.4,0.8-0.3c0.2,0,0.4,0.2,0.4,0.4
					c0,0.2-0.1,0.3-0.3,0.4c-0.1,0-0.2,0-0.2-0.1c0-0.1,0-0.2,0-0.2c0,0,0.1-0.1,0.1-0.2c-0.1-0.1-0.1-0.1-0.2-0.1
					c-0.1,0-0.3,0.2-0.3,0.3c0,0.2,0.1,0.4,0.2,0.5c0.1,0.1,0.2,0.1,0.2,0.1c0.5,0.2,0.6,0.7,0.5,1.2c-0.2,0.6-0.7,1-1.3,0.9
					c-0.3,0-0.6-0.2-0.6-0.5C153.9,319.9,154.1,319.6,154.4,319.5z"/>
				<path fill="#FFFFFF" d="M154.1,317.1c0.2,0,0.3-0.1,0.3-0.3c0,0,0-0.1,0-0.1c-0.1,0-0.1-0.1-0.1-0.2c0-0.2,0-0.4,0.1-0.5
					c0,0,0.1-0.1,0.1-0.1c0.2-0.1,0.3,0,0.4,0.1c0.1,0.3,0,0.8-0.3,1c-0.1,0-0.1,0.1-0.2,0.1C154.2,317.2,154.2,317.1,154.1,317.1z"
					/>
				<path fill="#FFFFFF" d="M155.1,317c0.1,0.1,0.2,0.2,0.3,0.3c-0.1,0-0.3,0-0.4,0c0,0,0,0-0.1-0.1
					C155,317.1,155.1,317.1,155.1,317z"/>
				<path fill="#282121" d="M140.8,320.2c0-0.2,0-0.5,0-0.7c0.2-0.9,0.5-1.7,1-2.4c0.2-0.2,0.3-0.4,0.6-0.6c0.1-0.1,0.3-0.1,0.5-0.2
					c0.2,0,0.4,0.1,0.4,0.3c0.1,0.3,0.1,0.7,0,1c-0.1,0.4-0.4,0.8-0.7,1.1C142.1,319.4,141.5,319.8,140.8,320.2
					C140.8,320.2,140.8,320.2,140.8,320.2z M141.2,319.9c0.2-0.1,0.4-0.3,0.6-0.4c0.5-0.4,1-0.9,1.3-1.5c0.2-0.3,0.3-0.7,0.2-1.1
					c0-0.1,0-0.1-0.2-0.1c0,0,0,0,0,0c-0.3,0.1-0.6,0.3-0.8,0.5c-0.5,0.6-0.7,1.2-0.9,1.9C141.3,319.4,141.2,319.6,141.2,319.9z"/>
				<path fill="#282121" d="M149.7,325.4c-0.2,0-0.4,0-0.6-0.1c-0.4-0.1-0.7-0.6-0.6-1c0.1-0.6,0.4-1.1,0.9-1.4
					c0.6-0.4,1.2-0.7,1.9-0.8c0.4-0.1,0.8-0.1,1.3-0.1c0.3,0,0.3,0,0.2,0.3c-0.2,0.9-0.5,1.6-1.1,2.3
					C151,325.1,150.4,325.3,149.7,325.4z M149.6,325.3c0.2,0,0.4,0,0.6-0.1c0.4-0.1,0.7-0.2,1-0.5c0.7-0.6,1.1-1.4,1.3-2.3
					c0-0.1,0-0.1-0.1-0.1c-0.3,0-0.7,0-1,0.1c-0.7,0.2-1.3,0.4-1.8,0.8c-0.4,0.3-0.7,0.6-0.8,1.1c0,0.2-0.1,0.5,0,0.7
					c0,0.1,0.1,0.1,0.2,0.2C149.2,325.3,149.4,325.3,149.6,325.3z"/>
				<path fill="#FFFFFF" d="M144.7,325.4c0-0.1,0.1-0.3,0.1-0.4c0-0.1,0-0.1,0-0.1c-0.1-0.1-0.1-0.2-0.2-0.3c0.1,0,0.3,0,0.4,0
					c0.1,0,0.1,0,0.1-0.1c0.1-0.1,0.1-0.2,0.2-0.3c0,0,0,0,0.1,0c0,0.1,0.1,0.2,0.1,0.3c0,0.1,0.1,0.1,0.1,0.1
					c0.1,0,0.2,0.1,0.3,0.1c0,0,0,0,0,0c0,0,0,0,0,0c-0.1,0.1-0.2,0.1-0.3,0.2c0,0-0.1,0.1-0.1,0.1c0,0.1,0,0.2,0,0.3
					c0,0,0,0.1,0,0.1c0,0-0.1,0-0.1,0c-0.1-0.1-0.2-0.1-0.2-0.2c0,0-0.1,0-0.1,0C145,325.3,144.9,325.4,144.7,325.4z"/>
				<path fill="#282121" d="M147.6,318.3c0.1-0.2,0.1-0.4,0.2-0.6c0.2-0.4,0.3-0.7,0.6-0.9c0.1-0.1,0.2-0.2,0.4-0.2
					c0.2-0.1,0.3,0,0.3,0.3c0,0.1,0,0.3-0.1,0.4c-0.2,0.3-0.5,0.5-0.8,0.7C148.1,318.1,147.9,318.2,147.6,318.3z M148.3,317.7
					c0.2,0,0.7-0.5,0.7-0.8C148.7,317.1,148.5,317.4,148.3,317.7z"/>
				<path fill="#282121" d="M147.3,320.7c0-0.3,0-0.6,0.1-0.8c0-0.1,0.1-0.2,0.1-0.3c0.1-0.1,0.2-0.2,0.3-0.1c0.1,0,0.2,0.1,0.2,0.2
					c0,0.1,0,0.2,0,0.3c0,0.4-0.1,0.7-0.2,1.1c0,0.1-0.1,0.2-0.2,0.3c-0.1,0.2-0.3,0.1-0.4-0.1c0,0,0-0.1,0-0.1
					C147.3,321,147.3,320.9,147.3,320.7z M147.7,321.2c0.2-0.4,0.3-0.9,0.3-1.3C147.7,320.3,147.7,320.8,147.7,321.2z"/>
				<path fill="#282121" d="M150.1,317.7C150.1,317.7,150.1,317.7,150.1,317.7c0.1-0.5,0.3-1,0.6-1.4c0.1-0.1,0.2-0.3,0.4-0.3
					c0.1-0.1,0.3-0.1,0.4,0c0.1,0.1,0.1,0.2,0.1,0.4c0,0.2-0.2,0.4-0.3,0.5C150.9,317.2,150.5,317.5,150.1,317.7
					C150.1,317.7,150.1,317.7,150.1,317.7L150.1,317.7z M150.8,317.1c0.3-0.2,0.7-0.6,0.7-0.8C151.2,316.4,150.8,316.9,150.8,317.1z
					"/>
				<path fill="#282121" d="M149.8,320.2c0-0.3,0-0.6,0.1-0.9c0-0.1,0.1-0.2,0.2-0.3c0.2-0.1,0.3-0.1,0.4,0.1c0.1,0.1,0.1,0.2,0,0.4
					c0,0.4-0.1,0.8-0.2,1.1c0,0.1-0.1,0.2-0.2,0.2c-0.1,0.1-0.3,0.1-0.4-0.1C149.8,320.5,149.8,320.3,149.8,320.2z M150.2,320.6
					C150.2,320.6,150.2,320.6,150.2,320.6c0.1-0.1,0.1-0.1,0.1-0.1c0.1-0.3,0.2-0.7,0.2-1c0-0.1,0-0.2,0-0.2c-0.1,0-0.1,0.1-0.1,0.2
					C150.2,319.8,150.2,320.2,150.2,320.6z"/>
				<path fill="#282121" d="M150.1,317.7C150.1,317.7,150.1,317.7,150.1,317.7C150.1,317.7,150.1,317.7,150.1,317.7
					C150.1,317.7,150.1,317.7,150.1,317.7L150.1,317.7z"/>
				<path fill="#282121" d="M145.3,320.9c0,0.4,0,0.7-0.1,1c0,0.1-0.1,0.2-0.1,0.3c-0.1,0.1-0.3,0.1-0.4,0c-0.1-0.1-0.1-0.3-0.1-0.4
					c0-0.4,0-0.8,0.1-1.2c0-0.1,0.1-0.2,0.2-0.3c0.2-0.1,0.3,0,0.4,0.1C145.3,320.6,145.3,320.7,145.3,320.9z M145,322.1
					c0.1-0.1,0.1-0.1,0.1-0.1c0.2-0.4,0.2-0.8,0.1-1.3c0-0.1,0,0-0.1,0c-0.1,0.1-0.1,0.1-0.1,0.2C144.9,321.2,144.9,321.6,145,322.1
					z"/>
			</g>
			<g id="Gabby_x27_s_-_grey">
				<path fill="#595A5C" d="M154.2,316c-0.1,0.1-0.1,0.2-0.1,0.4c0,0,0,0,0,0c-0.2-0.1-0.5-0.2-0.7-0.3c-0.5-0.2-0.9-0.3-1.4-0.4
					c-0.1-0.2-0.3-0.2-0.5-0.1c-0.1,0-0.1,0-0.2,0c-0.2,0-0.4-0.1-0.5-0.1c-0.6-0.1-1.2-0.1-1.8-0.1c-0.5,0-1.1,0-1.6,0.1
					c-0.4,0-0.7,0.1-1.1,0.1c-0.2,0-0.5,0.1-0.7,0.1c-0.3,0.1-0.5,0.1-0.8,0.2c0-0.1-0.1-0.2-0.2-0.3c0.1-0.1,0.2-0.1,0.3-0.1
					c0.3-0.1,0.5-0.1,0.8-0.2c0.4-0.1,0.7-0.1,1.1-0.2c0.4,0,0.8-0.1,1.2-0.1c0.6,0,1.3,0,1.9,0c0.3,0,0.6,0,0.9,0.1
					c0.3,0,0.6,0.1,1,0.2c0.4,0.1,0.8,0.2,1.2,0.3C153.4,315.7,153.8,315.8,154.2,316C154.1,316,154.2,316,154.2,316z"/>
				<path fill="#595A5C" d="M156.2,318.1c0-0.2-0.1-0.4-0.3-0.5c0,0,0,0,0,0c-0.1-0.2-0.2-0.3-0.4-0.3c0,0,0,0,0,0
					c-0.1-0.1-0.2-0.2-0.3-0.3c0-0.1,0.1-0.2,0.1-0.4c0.1,0.1,0.3,0.2,0.4,0.3c0.4,0.3,0.7,0.6,1,1c0,0.1,0.1,0.1,0.1,0.2
					c0,0.1,0.1,0.1,0.1,0.2c0.4,0.7,0.5,1.4,0.4,2.2c-0.1,0.8-0.4,1.4-0.9,2.1c-0.4,0.6-0.9,1.1-1.5,1.5c0,0,0,0,0,0
					c0.1-0.2,0.1-0.4,0.1-0.6c0,0,0,0,0,0c0.5-0.4,0.9-0.9,1.2-1.4c0.3-0.5,0.6-1,0.7-1.6c0.1-0.7,0-1.3-0.3-2
					C156.4,318.4,156.3,318.3,156.2,318.1z"/>
				<path fill="#595A5C" d="M141.5,316.7c-0.1,0.2-0.3,0.4-0.4,0.5c0,0.1-0.1,0.1-0.1,0.2c0,0-0.1,0-0.1,0c-0.5,0.3-1,0.7-1.5,1.1
					c-0.1,0.1-0.3,0.3-0.4,0.4c-0.1-0.1-0.2-0.2-0.3-0.3c0.6-0.7,1.4-1.3,2.2-1.7C141,317,141.2,316.8,141.5,316.7
					C141.4,316.7,141.4,316.7,141.5,316.7z"/>
				<path fill="#595A5C" d="M142.8,326c0.2-0.4,0.3-0.8,0.4-1.2c0.1-0.5,0.2-1,0.2-1.5c0-0.3,0-0.6,0-0.9c0,0,0-0.1,0-0.1
					c0.1-0.1,0.2-0.3,0.3-0.4c0,0.1,0,0.2,0,0.3c0,0.2,0,0.4,0.1,0.6c0,0.1,0.1,0.2,0.2,0.2c0,0,0,0,0.1,0c0.2,0.4,0.7,0.3,0.9,0.1
					c0.1-0.1,0.2-0.2,0.3-0.3c0.3,0.4,0.7,0.3,1,0c0.1-0.1,0.1-0.2,0.2-0.3c0-0.1,0.1-0.1,0.2-0.1c0,0.2,0,0.3,0,0.4
					c0,0,0.1,0,0.1,0c0.1-0.1,0.3-0.2,0.5-0.2c0,0,0.1,0,0.1,0c0,0,0.1,0,0.1,0c0,0,0-0.1,0-0.1c0-0.1,0-0.2,0-0.3
					c0.1,0.1,0.2,0.2,0.3,0.2c0.3,0.1,0.5,0.1,0.7-0.1c0.1-0.1,0.2-0.3,0.3-0.5c0,0,0,0,0-0.1c0,0.1,0,0.2,0,0.3
					c0.1,0,0.2-0.1,0.3-0.1c0,0.1,0,0.3,0,0.4c0,0,0.1,0,0.1-0.1c0.2-0.1,0.4-0.2,0.7-0.2c0.1,0,0.1,0,0.1-0.1c0-0.1,0-0.2,0.1-0.4
					c0.3,0.2,0.3,0.2,0.5,0.3c-0.2,0.1-0.4,0.1-0.6,0.2c-0.7,0.3-1.3,0.6-1.9,1c-0.7,0.6-1.2,1.3-1.5,2.2c-0.1,0.3-0.1,0.6,0,0.9
					c-0.2,0-0.4,0-0.6,0c-0.3,0-0.6,0-1,0c-0.1,0-0.1,0-0.1,0.1c-0.2,0.4-0.5,0.7-0.9,1c-0.1,0-0.1,0.1-0.2,0.1c0-0.1,0-0.2,0-0.2
					c0-0.4-0.1-0.7-0.3-1c-0.1-0.1-0.1-0.2-0.3-0.2C143.2,326.1,143,326.1,142.8,326z M144.7,325.4c0.1,0,0.3-0.1,0.4-0.1
					c0,0,0.1,0,0.1,0c0.1,0.1,0.2,0.1,0.2,0.2c0,0,0.1,0.1,0.1,0c0,0,0-0.1,0-0.1c0-0.1,0-0.2,0-0.3c0,0,0-0.1,0.1-0.1
					c0.1-0.1,0.2-0.1,0.3-0.2c0,0,0,0,0,0c0,0,0,0,0,0c-0.1,0-0.2-0.1-0.3-0.1c0,0-0.1,0-0.1-0.1c0-0.1-0.1-0.2-0.1-0.3
					c0-0.1,0-0.1-0.1,0c-0.1,0.1-0.1,0.2-0.2,0.3c0,0.1-0.1,0.1-0.1,0.1c-0.1,0-0.2,0-0.4,0c0.1,0.1,0.2,0.2,0.2,0.3
					c0,0,0,0.1,0,0.1C144.8,325.2,144.8,325.3,144.7,325.4z"/>
				<path fill="#595A5C" d="M150.9,315.7c-0.4,0.3-0.8,0.7-1,1.1c0,0,0,0,0,0c0,0,0,0,0,0c0,0,0,0,0-0.1c0-0.2,0-0.3-0.1-0.4
					c-0.1-0.1-0.2-0.2-0.3-0.3c-0.1-0.1-0.2-0.1-0.3-0.1c-0.4,0-0.7,0.2-1,0.5c-0.5,0.4-0.8,1-1.1,1.5c0,0.1-0.1,0.2-0.1,0.3
					c0,0,0,0.1-0.1,0.1c-0.2,0.1-0.4,0.1-0.6,0.1c0,0-0.1,0-0.1,0c0,0,0-0.1,0-0.1c0,0,0.1-0.1,0.1-0.1c0,0,0.1,0,0-0.1
					c-0.1-0.1-0.1-0.1-0.2-0.1c-0.1,0,0-0.1-0.1-0.2c-0.2-0.1-0.5-0.2-0.7,0c-0.6,0.3-0.5,1.1-0.1,1.3c0,0,0.1,0,0.1,0.1
					c0.1,0.2,0.3,0.3,0.5,0.3c0,0,0.1,0,0.1,0c0,0,0,0-0.1,0.1c-0.1,0.1-0.3,0.1-0.4,0c0,0-0.1,0-0.1,0c0,0,0,0.1,0,0.1
					c0,0-0.1-0.1-0.1-0.1c-0.1-0.1-0.3,0-0.4,0c-0.2,0.1-0.4,0.3-0.5,0.5c0,0,0,0.1-0.1,0.1c0-0.1-0.1-0.2-0.2-0.2c0,0,0,0,0-0.1
					c-0.1-0.2-0.2-0.2-0.4-0.2c-0.3,0.1-0.5,0.3-0.6,0.6c-0.2,0.3-0.3,0.6-0.3,0.9c0,0,0,0.1,0,0.1c-0.4,0.2-0.7,0.2-1.1,0
					c-0.1,0-0.1-0.1-0.2-0.2c-0.2-0.3-0.2-0.3,0.1-0.5c0.7-0.5,1.3-1,1.8-1.6c0.5-0.6,1-1.2,1.3-1.9c0.2-0.4,0.3-0.8,0.2-1.3
					c0.2-0.1,0.4-0.1,0.6-0.2c0.4-0.1,0.8-0.1,1.2-0.2c0.4-0.1,0.9-0.1,1.3-0.1c0.6,0,1.1,0,1.7,0
					C150.1,315.6,150.5,315.6,150.9,315.7z"/>
				<path fill="#595A5C" d="M154.2,316.7C154.2,316.7,154.2,316.7,154.2,316.7c0.1,0.1,0.1,0.1,0.1,0.2c0,0.1-0.1,0.1-0.1,0.1
					c0,0,0,0-0.1,0c-0.1,0-0.1,0-0.1,0.1c0,0.1,0.1,0.2,0.2,0.2c0,0,0,0,0.1,0c0.1,0.2,0.1,0.2,0.4,0.2c0,0,0,0,0.1,0
					c-0.1,0.1-0.1,0.1-0.2,0.2c-0.2,0.4-0.2,0.7,0.1,1.1c0.1,0.1,0.2,0.2,0.3,0.3c0.1,0.1,0.1,0.3,0.1,0.4c0,0.1-0.1,0.2-0.2,0.2
					c0,0,0-0.1,0-0.1c-0.1,0-0.1,0-0.2,0c-0.1,0-0.1,0-0.1-0.1c0-0.1,0-0.1,0-0.2c0-0.1,0-0.1-0.1-0.1c-0.3,0.1-0.5,0.2-0.6,0.5
					c-0.1,0.3,0,0.5,0.3,0.7c0,0,0,0,0.1,0c0.2,0.3,0.6,0.4,1,0.4c0.6-0.1,1.1-0.6,1.1-1.2c0-0.4-0.1-0.7-0.4-0.9
					c-0.1-0.1-0.2-0.2-0.3-0.3l0,0c0.2,0.1,0.4,0,0.5-0.1c0,0,0,0.1,0,0.1c0.2,0.4,0.4,0.8,0.4,1.3c0,0.5-0.1,1-0.3,1.5
					c-0.3,0.7-0.8,1.3-1.4,1.9c0,0-0.1,0.1-0.2,0.1c-0.1-0.3-0.2-0.6-0.4-0.8c-0.2-0.2-0.4-0.4-0.7-0.6c0,0,0,0,0-0.1
					c0.1-0.5,0.1-0.9,0.2-1.4c0.1-0.6,0.1-1.2,0.2-1.7c0-0.2,0-0.3,0-0.5c0,0,0-0.1,0-0.1c-0.1,0-0.2,0.1-0.3,0.2c0-0.1,0-0.3,0-0.4
					c-0.1,0.1-0.2,0.1-0.3,0.2c-0.1,0.1-0.3,0.1-0.5,0.1c-0.1,0-0.1,0-0.1,0.1c-0.1,0.6-0.1,1.2-0.2,1.8c0,0.1,0,0.3,0,0.4
					c0,0.1,0,0.1-0.1,0.2c0,0,0-0.1,0-0.1c0.1-0.4,0.1-0.9,0.1-1.3c0-0.2-0.1-0.4-0.3-0.5c0,0,0,0,0,0c-0.2-0.3-0.4-0.3-0.7-0.2
					c-0.2,0.1-0.3,0.3-0.5,0.5c0,0,0,0.1,0,0.1c0,0,0.1,0,0.1,0c0,0,0.1,0,0.1-0.1c0,0,0.1,0,0.1,0c0,0,0,0.1,0,0.1
					c0,0,0,0.1-0.1,0.1c0,0.1,0,0.1,0.1,0.1c0.1,0,0.1,0,0.1,0.1c0,0.3,0,0.5-0.1,0.8c0,0.3-0.1,0.6-0.1,0.8c0,0.2,0,0.5,0.3,0.6
					c0,0,0,0.1,0.1,0.1c0,0.1,0.1,0.1,0.2,0.2c0,0-0.1,0-0.2,0c-0.3,0-0.5,0.1-0.8,0.2c0,0-0.1,0-0.1,0c0,0,0,0,0-0.1
					c0.2-0.2,0.3-0.5,0.4-0.8c0.1-0.5,0.1-1,0-1.5c-0.1-0.3-0.2-0.5-0.4-0.7c0,0,0-0.1-0.1-0.1c-0.1-0.2-0.3-0.3-0.5-0.2
					c0,0,0,0-0.1,0c0,0,0,0,0-0.1c0,0,0,0,0.1,0c0.5-0.3,1-0.7,1.4-1.2c0.1-0.2,0.3-0.4,0.4-0.6c0.1-0.2,0.1-0.4,0.1-0.6
					c0.1,0,0.2,0,0.3,0.1c0.4,0.1,0.9,0.3,1.3,0.5C153.9,316.6,154,316.7,154.2,316.7z"/>
				<path fill="#595A5C" d="M137.9,322.1c0.5,0.1,1,0,1.6-0.1c0.1,0,0.1,0,0.1,0.1c0.1,0.4,0.3,0.7,0.6,0.9c0.1,0.1,0.2,0.2,0.3,0.3
					c0.3,0.3,0.7,0.3,1.1,0.2c0.3-0.1,0.5-0.1,0.8-0.3c0,0.1,0,0.2-0.1,0.2c-0.2,0.6-0.5,1.2-1,1.6c-0.2,0.1-0.3,0.3-0.6,0.3
					c0,0-0.1,0-0.1,0c-0.3-0.1-0.5-0.3-0.8-0.4c0-0.2,0.1-0.4,0.3-0.6c0,0,0.1,0,0.1-0.1c0.1-0.1,0.1-0.2,0-0.3
					c-0.1-0.1-0.2-0.2-0.3-0.3c-0.1-0.1-0.3-0.1-0.4-0.2c-0.3,0-0.6,0-0.9,0.2c0,0,0,0,0,0c0,0,0,0-0.1,0
					C138.2,323.3,138,322.7,137.9,322.1z"/>
				<path fill="#595A5C" d="M143.3,328.4c-0.2,0-0.5,0.1-0.7,0.1c-0.2,0-0.4,0-0.6,0c0,0,0,0,0,0c0.2-0.1,0.3-0.1,0.5-0.2
					c0.3-0.1,0.6-0.3,0.8-0.7c0-0.1,0.1-0.2,0-0.3c0-0.1,0-0.2-0.1-0.3c0-0.1-0.1,0-0.1-0.1c-0.2,0-0.5-0.1-0.7-0.1c0,0,0,0-0.1,0
					c0.1-0.1,0.2-0.3,0.3-0.4c0.2,0.1,0.5,0.1,0.8,0.1c0.1,0,0.1,0,0.1,0.1c0.1,0.1,0.1,0.2,0.2,0.4c0.1,0.2,0.1,0.4,0,0.6
					c0,0.1-0.1,0.2-0.2,0.3c-0.1,0.1-0.1,0.1,0,0.2c0,0.1,0.1,0.1,0.2,0c0,0,0.1,0,0.1-0.1c0.6-0.3,1.1-0.7,1.4-1.3
					c0,0,0.1-0.1,0.1-0.1c0.5,0,1,0,1.5-0.1c0.1,0.2,0.2,0.3,0.4,0.4c-0.2,0-0.3,0-0.4,0c-0.4,0-0.8,0-1.1,0c-0.1,0-0.1,0-0.1,0.1
					c-0.3,0.5-0.8,0.8-1.3,1C143.9,328.2,143.6,328.3,143.3,328.4z"/>
				<path fill="#595A5C" d="M138.8,319.6c0-0.1,0.1-0.1,0.2-0.1c0.1,0,0.1-0.1,0.1-0.2c0,0,0,0,0,0c0.4-0.4,0.9-0.8,1.4-1.2
					c0,0,0.1-0.1,0.1-0.1c-0.1,0.3-0.3,0.5-0.5,0.8c-0.3,0.6-0.5,1.1-0.6,1.7c0,0,0,0.1-0.1,0.1c-0.3,0-0.5,0-0.8-0.1c0,0,0,0-0.1,0
					c-0.1-0.1-0.1-0.3-0.1-0.5C138.6,319.8,138.7,319.7,138.8,319.6z"/>
				<path fill="#595A5C" d="M149,320.4c0-0.2-0.1-0.5-0.2-0.7c-0.1-0.2-0.2-0.3-0.3-0.4c-0.1,0-0.1-0.1-0.2-0.2
					c-0.1-0.1-0.3-0.2-0.4-0.2c0,0,0,0-0.1,0c0,0,0-0.1,0-0.1c0,0,0,0,0.1,0c0.5-0.3,1-0.7,1.4-1.2c0.1-0.1,0.1-0.1,0.2-0.2
					c0,0.1-0.1,0.2-0.1,0.3c-0.1,0.3-0.2,0.6-0.2,1C149.2,319.3,149.1,319.9,149,320.4z"/>
				<path fill="#595A5C" d="M138.1,324.3c-0.2-0.3-0.4-0.6-0.6-0.9c-0.2-0.5-0.3-1.1-0.3-1.6c0.1,0.1,0.3,0.2,0.4,0.2c0,0,0,0,0,0.1
					c0,0.5,0.1,0.9,0.3,1.3c0.1,0.2,0.3,0.4,0.4,0.6C138.3,324.1,138.2,324.2,138.1,324.3z"/>
				<path fill="#595A5C" d="M153.4,324.5c0.2,0.1,0.2,0.2,0.3,0.3c-0.6,0.4-1.3,0.7-2,1c0.2-0.2,0.4-0.5,0.5-0.7
					c0.2-0.1,0.3-0.1,0.5-0.2C153,324.7,153.2,324.6,153.4,324.5z"/>
				<path fill="#595A5C" d="M146.4,319.8c-0.1,0.1-0.2,0.1-0.3,0.2c0-0.1,0-0.2,0-0.3c0,0,0,0,0.1,0c0.2,0,0.3-0.1,0.5-0.1
					c0,0.2,0,0.4,0,0.6c0,0.4-0.1,0.9-0.1,1.3c0,0.2,0,0.5-0.1,0.7c0,0.1,0,0.1-0.1,0.1c0,0-0.1,0-0.1-0.1c0-0.1,0.1-0.2,0.1-0.4
					c-0.1,0-0.1,0.1-0.2,0.1C146.3,321.2,146.4,320.5,146.4,319.8z"/>
				<path fill="#595A5C" d="M152.6,324.7c0.1-0.2,0.2-0.4,0.3-0.7c0.2-0.4,0.4-0.9,0.5-1.4c0-0.1,0-0.1,0.1,0c0,0,0,0,0,0
					c0.1,0.2,0.2,0.4,0.2,0.7c0,0,0,0.1,0,0.1c0,0.1-0.2,0.2-0.3,0.1c0,0,0,0,0,0c0,0-0.1-0.1-0.1-0.1c-0.1,0-0.1,0.1-0.1,0.2
					c-0.1,0.2,0,0.4,0,0.6c0,0-0.1,0-0.1,0.1C153,324.5,152.8,324.6,152.6,324.7z"/>
				<path fill="#595A5C" d="M148.6,318c0.3-0.2,0.5-0.5,0.7-0.8C149.2,317.5,148.9,317.8,148.6,318z"/>
				<path fill="#595A5C" d="M151.6,316.7c-0.1,0.2-0.3,0.4-0.5,0.6C151.3,317.1,151.5,316.9,151.6,316.7z"/>
				<path fill="#595A5C" d="M152.5,321.6c0.1,0,0.1-0.1,0.2-0.1C152.7,321.6,152.7,321.6,152.5,321.6z"/>
				<path fill="#595A5C" d="M155.6,318.5c-0.1,0-0.1-0.1-0.2-0.1c-0.1,0-0.1-0.1-0.1-0.2c0.1,0,0.2,0.1,0.2,0.2
					C155.5,318.5,155.6,318.5,155.6,318.5L155.6,318.5z"/>
				<path fill="#595A5C" d="M155,317.2C155,317.3,155.1,317.3,155,317.2c0,0.1,0,0.1-0.1,0.1C154.9,317.3,155,317.3,155,317.2z"/>
				<path fill="#595A5C" d="M141.2,319.9c0-0.3,0.1-0.5,0.2-0.7c0.2-0.7,0.5-1.3,0.9-1.9c0.2-0.2,0.4-0.5,0.8-0.5c0,0,0,0,0,0
					c0.1,0,0.1,0,0.2,0.1c0.1,0.4,0,0.8-0.2,1.1c-0.3,0.6-0.8,1.1-1.3,1.5C141.6,319.6,141.4,319.8,141.2,319.9z"/>
				<path fill="#595A5C" d="M149.6,325.3c-0.2,0-0.4,0-0.6-0.1c-0.1,0-0.1-0.1-0.2-0.2c-0.1-0.2-0.1-0.5,0-0.7
					c0.1-0.5,0.4-0.8,0.8-1.1c0.5-0.4,1.2-0.7,1.8-0.8c0.3-0.1,0.7-0.1,1-0.1c0.1,0,0.1,0,0.1,0.1c-0.2,0.9-0.6,1.7-1.3,2.3
					c-0.3,0.3-0.7,0.4-1,0.5C150,325.2,149.8,325.3,149.6,325.3z"/>
				<path fill="#595A5C" d="M148.3,317.7c0.2-0.3,0.4-0.6,0.7-0.8C149,317.2,148.5,317.7,148.3,317.7z"/>
				<path fill="#595A5C" d="M147.7,321.2c0-0.5,0-0.9,0.3-1.3C148,320.4,148,320.8,147.7,321.2z"/>
				<path fill="#595A5C" d="M150.8,317.1c0.1-0.2,0.5-0.7,0.7-0.8C151.4,316.5,151.1,316.9,150.8,317.1z"/>
				<path fill="#595A5C" d="M150.2,320.6c0-0.4,0-0.8,0.2-1.2c0-0.1,0.1-0.2,0.1-0.2c0.1,0,0,0.1,0,0.2c0,0.4-0.1,0.7-0.2,1
					C150.2,320.6,150.2,320.6,150.2,320.6C150.2,320.6,150.2,320.6,150.2,320.6z"/>
				<path fill="#595A5C" d="M145,322.1c-0.1-0.4-0.1-0.8,0.1-1.2c0-0.1,0.1-0.1,0.1-0.2c0,0,0.1,0,0.1,0c0,0.4,0,0.9-0.1,1.3
					C145,322,145,322,145,322.1z"/>
			</g>
		</g>
		<g>
			<g>
				<line fill="none" stroke="#000000" stroke-miterlimit="10" x1="584.2" y1="73.4" x2="598.6" y2="100.9"/>
				<g>
					<polygon points="583.6,75.9 584.4,73.6 586.7,74.4 586,73.1 583.7,72.4 583,74.7 					"/>
				</g>
			</g>
		</g>
		<g>
			<g>
				<line fill="none" stroke="#000000" stroke-miterlimit="10" x1="513.3" y1="111.1" x2="528.2" y2="138.7"/>
				<g>
					<polygon points="525.8,137.7 528.1,138.4 528.7,136.1 529.4,137.4 528.7,139.7 526.4,139 					"/>
				</g>
			</g>
		</g>
	</g>
	<g id="Letters" clip-path="url(#SVGID_2_)">
		<rect x="71.4" y="430.8" transform="matrix(0.9923 0.1241 -0.1241 0.9923 55.1531 -7.0185)" fill="none" width="25" height="17"/>
		
			<text transform="matrix(0.9923 0.1241 -0.1241 0.9923 71.3324 439.1961)" fill="#FFFFFF" font-family="'HelveticaNeue-CondensedBold'" font-size="14">A</text>
		<rect x="68.2" y="455.5" transform="matrix(0.9923 0.1241 -0.1241 0.9923 58.199 -6.424)" fill="none" width="25" height="17"/>
		
			<text transform="matrix(0.9923 0.1241 -0.1241 0.9923 68.0827 463.9471)" fill="#FFFFFF" font-family="'HelveticaNeue-CondensedBold'" font-size="14">B</text>
		
			<rect x="136.6" y="350.2" transform="matrix(0.9923 0.1241 -0.1241 0.9923 45.3656 -14.8206)" fill="none" width="10.1" height="13.3"/>
		
			<text transform="matrix(0.9923 0.1241 -0.1241 0.9923 136.234 359.4992)" fill="#FFFFFF" font-family="'HelveticaNeue-CondensedBold'" font-size="14">C</text>
		
			<rect x="174.4" y="374.2" transform="matrix(0.9923 0.1241 -0.1241 0.9923 48.6386 -19.3553)" fill="none" width="10.5" height="13.3"/>
		
			<text transform="matrix(0.9923 0.1241 -0.1241 0.9923 174.0673 383.4814)" fill="#FFFFFF" font-family="'HelveticaNeue-CondensedBold'" font-size="14">D</text>
		
			<rect x="240.8" y="333.2" transform="matrix(0.9923 0.1241 -0.1241 0.9923 43.9771 -27.867)" fill="none" width="9.8" height="11.8"/>
		
			<text transform="matrix(0.9923 0.1241 -0.1241 0.9923 240.3207 342.5848)" fill="#FFFFFF" font-family="'HelveticaNeue-CondensedBold'" font-size="14">E</text>
		
			<rect x="305.4" y="341.3" transform="matrix(0.9923 0.1241 -0.1241 0.9923 45.5677 -35.8119)" fill="none" width="9.9" height="13.3"/>
		
			<text transform="matrix(0.9923 0.1241 -0.1241 0.9923 304.9743 350.6406)" fill="#FFFFFF" font-family="'HelveticaNeue-CondensedBold'" font-size="14">F</text>
		
			<rect x="382.8" y="294.9" transform="matrix(0.9923 0.1241 -0.1241 0.9923 40.4133 -45.8626)" fill="none" width="11.1" height="13.3"/>
		
			<text transform="matrix(0.9923 0.1241 -0.1241 0.9923 382.4448 304.1563)" fill="#FFFFFF" font-family="'HelveticaNeue-CondensedBold'" font-size="14">G</text>
		
			<rect x="381" y="311.6" transform="matrix(0.9923 0.1241 -0.1241 0.9923 42.477 -45.5883)" fill="none" width="12.5" height="13.3"/>
		
			<text transform="matrix(0.9923 0.1241 -0.1241 0.9923 380.5819 320.7752)" fill="#FFFFFF" font-family="'HelveticaNeue-CondensedBold'" font-size="14">H</text>
		
			<rect x="428.8" y="203.7" transform="matrix(0.9923 0.1241 -0.1241 0.9923 29.4541 -52.2375)" fill="none" width="10.5" height="13.3"/>
		
			<text transform="matrix(0.9923 0.1241 -0.1241 0.9923 428.4547 213.0264)" fill="#FFFFFF" font-family="'HelveticaNeue-CondensedBold'" font-size="14">I</text>
		
			<rect x="423.8" y="218.4" transform="matrix(0.9923 0.1241 -0.1241 0.9923 31.2402 -51.5006)" fill="none" width="10.5" height="13.3"/>
		
			<text transform="matrix(0.9923 0.1241 -0.1241 0.9923 423.4323 227.7343)" fill="#FFFFFF" font-family="'HelveticaNeue-CondensedBold'" font-size="14">J</text>
		
			<rect x="420.8" y="233.5" transform="matrix(0.9923 0.1241 -0.1241 0.9923 33.0851 -51.0097)" fill="none" width="10.5" height="13.3"/>
		
			<text transform="matrix(0.9923 0.1241 -0.1241 0.9923 420.4133 242.7904)" fill="#FFFFFF" font-family="'HelveticaNeue-CondensedBold'" font-size="14">K</text>
		
			<rect x="385.1" y="210.9" transform="matrix(0.9923 0.1241 -0.1241 0.9923 30.0133 -46.7555)" fill="none" width="10.5" height="13.3"/>
		
			<text transform="matrix(0.9923 0.1241 -0.1241 0.9923 384.7235 220.2575)" fill="#FFFFFF" font-family="'HelveticaNeue-CondensedBold'" font-size="14">L</text>
		
			<rect x="352.1" y="163.8" transform="matrix(0.9923 0.1241 -0.1241 0.9923 23.9094 -43.0216)" fill="none" width="10.5" height="13.3"/>
		
			<text transform="matrix(0.9923 0.1241 -0.1241 0.9923 351.6958 173.1216)" fill="#FFFFFF" font-family="'HelveticaNeue-CondensedBold'" font-size="14">M</text>
		
			<rect x="361.2" y="177.2" transform="matrix(0.9923 0.1241 -0.1241 0.9923 25.6379 -44.0453)" fill="none" width="10.5" height="13.3"/>
		
			<text transform="matrix(0.9923 0.1241 -0.1241 0.9923 360.7792 186.4868)" fill="#FFFFFF" font-family="'HelveticaNeue-CondensedBold'" font-size="14">N</text>
		
			<rect x="376.3" y="150.8" transform="matrix(0.9923 0.1241 -0.1241 0.9923 22.4881 -46.1252)" fill="none" width="10.5" height="13.3"/>
		
			<text transform="matrix(0.9923 0.1241 -0.1241 0.9923 375.9013 160.1588)" fill="#FFFFFF" font-family="'HelveticaNeue-CondensedBold'" font-size="14">O</text>
		
			<rect x="428.3" y="122.5" transform="matrix(0.9923 0.1241 -0.1241 0.9923 19.3737 -52.8002)" fill="none" width="10.5" height="13.3"/>
		
			<text transform="matrix(0.9923 0.1241 -0.1241 0.9923 427.9308 131.8201)" fill="#FFFFFF" font-family="'HelveticaNeue-CondensedBold'" font-size="14">P</text>
		<g>
			
				<rect x="440.9" y="133.1" transform="matrix(0.9923 0.1241 -0.1241 0.9923 20.7846 -54.3231)" fill="none" width="11.1" height="13.3"/>
			
				<text transform="matrix(0.9923 0.1241 -0.1241 0.9923 440.5518 142.3466)" fill="#FFFFFF" font-family="'HelveticaNeue-CondensedBold'" font-size="14">Q</text>
		</g>
		
			<rect x="454.7" y="144.6" transform="matrix(0.9923 0.1241 -0.1241 0.9923 22.3222 -55.9069)" fill="none" width="10.5" height="13.3"/>
		
			<text transform="matrix(0.9923 0.1241 -0.1241 0.9923 454.3458 153.9374)" fill="#FFFFFF" font-family="'HelveticaNeue-CondensedBold'" font-size="14">R</text>
		
			<rect x="516.1" y="69.1" transform="matrix(0.9923 0.1241 -0.1241 0.9923 13.4309 -64.1461)" fill="none" width="11.1" height="13.3"/>
		
			<text transform="matrix(0.9923 0.1241 -0.1241 0.9923 515.7343 78.399)" fill="#FFFFFF" font-family="'HelveticaNeue-CondensedBold'" font-size="14">S</text>
		<g>
			
				<rect x="529.5" y="61.7" transform="matrix(0.9923 0.1241 -0.1241 0.9923 12.6118 -65.8293)" fill="none" width="10.5" height="13.3"/>
			
				<text transform="matrix(0.9923 0.1241 -0.1241 0.9923 529.1484 71.0209)" fill="#FFFFFF" font-family="'HelveticaNeue-CondensedBold'" font-size="14">T</text>
		</g>
		
			<rect x="473.3" y="30.5" transform="matrix(0.9923 0.1241 -0.1241 0.9923 8.3098 -59.09)" fill="none" width="10.5" height="13.3"/>
		
			<text transform="matrix(0.9923 0.1241 -0.1241 0.9923 472.8935 39.853)" font-family="'HelveticaNeue-CondensedBold'" font-size="14">U</text>
		<g>
			
				<rect x="579.4" y="383.3" transform="matrix(0.9923 0.1241 -0.1241 0.9923 52.8962 -69.5345)" fill="none" width="10.5" height="13.3"/>
			
				<text transform="matrix(0.9923 0.1241 -0.1241 0.9923 579.0358 392.571)" fill="#FFFFFF" font-family="'HelveticaNeue-CondensedBold'" font-size="14">V</text>
		</g>
	</g>
	<g id="Street_Names" clip-path="url(#SVGID_2_)">
		<g>
			<path id="SVGID_x5F_7_x5F_" fill="none" d="M437.3-8.8l243,459.7"/>
			<text>			<textPath  xlink:href="#SVGID_x5F_7_x5F_" startOffset="28.625%">
<tspan  font-family="'HelveticaNeue-CondensedBold'" font-size="9">4th AVE S (one-way)</tspan>			</textPath>
</text>
			<path id="SVGID_x5F_8_x5F_" fill="none" d="M505.6-50.8l243,459.7"/>
			<text>			<textPath  xlink:href="#SVGID_x5F_8_x5F_" startOffset="28.906%">
<tspan  font-family="'HelveticaNeue-CondensedBold'" font-size="9">2nd AVE S (one-way)</tspan>			</textPath>
</text>
			<path id="SVGID_x5F_9_x5F_" fill="none" d="M303.1,233.7L513.1,261"/>
			<text>			<textPath  xlink:href="#SVGID_x5F_9_x5F_" startOffset="0.244%">
<tspan  font-family="'HelveticaNeue-CondensedBold'" font-size="9">HOUSTON ST</tspan>			</textPath>
</text>
			<path id="SVGID_x5F_10_x5F_" fill="none" d="M286.6,495.9l30.7-252.5"/>
			<text>			<textPath  xlink:href="#SVGID_x5F_10_x5F_" startOffset="63.843%">
<tspan  font-family="'HelveticaNeue-CondensedBold'" font-size="9">MARTIN ST</tspan>			</textPath>
</text>
			<path id="SVGID_x5F_11_x5F_" fill="none" d="M539.4,566l30.7-252.5"/>
			<text>			<textPath  xlink:href="#SVGID_x5F_11_x5F_" startOffset="48.484%">
<tspan  font-family="'HelveticaNeue-CondensedBold'" font-size="9">LITTLE HAMILTON BLVD</tspan>			</textPath>
</text>
			<path id="SVGID_x5F_12_x5F_" fill="none" d="M126.3,335.4c0,0-1.8,12-0.1,36.1c0,7.5,0,12.5,0,12.5l164.4,22.6"/>
			<text>			<textPath  xlink:href="#SVGID_x5F_12_x5F_" startOffset="88.7243%">
<tspan  font-family="'HelveticaNeue-CondensedBold'" font-size="9">GRAY ST</tspan>			</textPath>
</text>
			<path id="SVGID_x5F_13_x5F_" fill="none" d="M-33.2,316.9l162.8,26"/>
			<text>			<textPath  xlink:href="#SVGID_x5F_13_x5F_" startOffset="55.273%">
<tspan  font-family="'HelveticaNeue-CondensedBold'" font-size="9">CHESTNUT ST</tspan>			</textPath>
</text>
			<path id="SVGID_x5F_14_x5F_" fill="none" d="M412.6,340.8L423,255"/>
			<text>			<textPath  xlink:href="#SVGID_x5F_14_x5F_" startOffset="20.579%">
<tspan  font-family="'HelveticaNeue-CondensedBold'" font-size="9">BROWN ST</tspan>			</textPath>
</text>
			<path id="SVGID_x5F_15_x5F_" fill="none" d="M517.8,352.6l10-85.6"/>
			<text>			<textPath  xlink:href="#SVGID_x5F_15_x5F_" startOffset="18.555%">
<tspan  font-family="'HelveticaNeue-CondensedBold'" font-size="9">PILLOW ST</tspan>			</textPath>
</text>
			<path id="SVGID_x5F_16_x5F_" fill="none" d="M110.5,338.1c4-61.7,51-85.9,51-85.9L467.9,75.8"/>
			<text>			<textPath  xlink:href="#SVGID_x5F_16_x5F_" startOffset="61.444%">
<tspan  font-family="'HelveticaNeue-CondensedBold'" font-size="9">       CHESTNUT ST</tspan>			</textPath>
</text>
			<path id="SVGID_x5F_17_x5F_" fill="none" d="M106.1,292l497.6,63.9"/>
			<text>			<textPath  xlink:href="#SVGID_x5F_17_x5F_" startOffset="33.081%">
<tspan  font-family="'HelveticaNeue-CondensedBold'" font-size="9">HUMPHREYS ST</tspan>			</textPath>
</text>
			<path id="SVGID_x5F_18_x5F_" fill="none" d="M505.6,407.1l263.1,33.8"/>
			<text>			<textPath  xlink:href="#SVGID_x5F_18_x5F_" startOffset="31.409%">
<tspan  font-family="'HelveticaNeue-CondensedBold'" font-size="9">ZIMMERLEE</tspan>			</textPath>
</text>
			<g>
				<path id="SVGID_x5F_19_x5F_" fill="none" d="M129.4,455.3l160.9,22"/>
				<text>				<textPath  xlink:href="#SVGID_x5F_19_x5F_" startOffset="55.029%">
<tspan  font-family="'HelveticaNeue-CondensedBold'" font-size="9">MERRITT AVE</tspan>				</textPath>
</text>
			</g>
		</g>
	</g>
	<g id="logo" clip-path="url(#SVGID_2_)">
		<path fill="#6E6F72" d="M46.3,47h18.2c1,0,1.9,0.2,2.8,0.5c0.9,0.3,1.6,0.7,2.3,1.3c0.6,0.5,1.1,1.2,1.5,1.9
			c0.4,0.7,0.6,1.5,0.6,2.3c0,0.8-0.2,1.6-0.6,2.3c-0.4,0.7-0.9,1.3-1.5,1.9c-0.6,0.5-1.4,1-2.3,1.3c-0.9,0.3-1.8,0.5-2.8,0.5h0
			l7.2,9.3h-1.2l-7.2-9.3H47.3v9.3h-1V47z M66.9,57.6c0.7-0.3,1.4-0.6,1.9-1.1c0.5-0.5,1-1,1.3-1.6c0.3-0.6,0.5-1.3,0.5-2
			c0-0.7-0.2-1.3-0.5-2c-0.3-0.6-0.7-1.2-1.3-1.6c-0.5-0.5-1.2-0.8-1.9-1.1c-0.7-0.3-1.5-0.4-2.3-0.4H47.3V58h17.2
			C65.3,58,66.1,57.8,66.9,57.6"/>
		<path fill="none" stroke="#6E6F72" stroke-width="1.4945" d="M46.3,47h18.2c1,0,1.9,0.2,2.8,0.5c0.9,0.3,1.6,0.7,2.3,1.3
			c0.6,0.5,1.1,1.2,1.5,1.9c0.4,0.7,0.6,1.5,0.6,2.3c0,0.8-0.2,1.6-0.6,2.3c-0.4,0.7-0.9,1.3-1.5,1.9c-0.6,0.5-1.4,1-2.3,1.3
			c-0.9,0.3-1.8,0.5-2.8,0.5h0l7.2,9.3h-1.2l-7.2-9.3H47.3v9.3h-1V47z M66.9,57.6c0.7-0.3,1.4-0.6,1.9-1.1c0.5-0.5,1-1,1.3-1.6
			c0.3-0.6,0.5-1.3,0.5-2c0-0.7-0.2-1.3-0.5-2c-0.3-0.6-0.7-1.2-1.3-1.6c-0.5-0.5-1.2-0.8-1.9-1.1c-0.7-0.3-1.5-0.4-2.3-0.4H47.3V58
			h17.2C65.3,58,66.1,57.8,66.9,57.6z"/>
		<polygon fill="#6E6F72" points="76.2,47 101.4,47 101.4,47.8 89.3,47.8 89.3,68.1 88.2,68.1 88.2,47.8 76.2,47.8 		"/>
		<polygon fill="none" stroke="#6E6F72" stroke-width="1.4945" points="76.2,47 101.4,47 101.4,47.8 89.3,47.8 89.3,68.1 88.2,68.1 
			88.2,47.8 76.2,47.8 		"/>
		<path fill="#6E6F72" d="M123.4,52c0-0.5-0.2-1.1-0.6-1.6c-0.4-0.5-1-1-1.7-1.4c-0.7-0.4-1.6-0.7-2.6-1c-1-0.2-2-0.4-3-0.4
			c-1.1,0-2.1,0.1-3,0.3c-1,0.2-1.8,0.5-2.5,0.9c-0.7,0.4-1.3,0.8-1.7,1.4c-0.4,0.5-0.7,1.1-0.7,1.7c0,0.6,0.2,1.2,0.7,1.7
			c0.4,0.5,1.1,0.9,1.8,1.3c0.8,0.4,1.7,0.7,2.7,1c1,0.3,2.2,0.5,3.4,0.8c1.1,0.2,2.2,0.5,3.2,0.8c1,0.3,2,0.7,2.7,1.2
			c0.8,0.5,1.4,1.1,1.9,1.8c0.5,0.7,0.7,1.5,0.7,2.4c0,0.8-0.2,1.5-0.7,2.1c-0.5,0.6-1.1,1.2-2,1.6c-0.8,0.4-1.8,0.8-3,1
			c-1.1,0.2-2.3,0.4-3.6,0.4c-1.3,0-2.5-0.1-3.6-0.4c-1.1-0.3-2.1-0.6-2.9-1.1c-0.8-0.5-1.5-1-2-1.6c-0.5-0.6-0.7-1.3-0.7-2h1
			c0,0.6,0.2,1.1,0.7,1.7c0.5,0.5,1.1,1,1.8,1.4c0.8,0.4,1.6,0.7,2.6,0.9c1,0.2,2,0.3,3.1,0.3c1.1,0,2.1-0.1,3.1-0.3
			c1-0.2,1.8-0.5,2.6-0.9c0.8-0.4,1.4-0.8,1.8-1.4c0.4-0.5,0.7-1.1,0.7-1.7c0-0.8-0.2-1.5-0.6-2c-0.4-0.6-1-1.1-1.7-1.5
			c-0.7-0.4-1.5-0.8-2.5-1.1c-1-0.3-2-0.5-3.1-0.8c-1.4-0.3-2.6-0.6-3.8-0.9c-1.1-0.3-2.1-0.7-3-1.2c-0.8-0.4-1.5-1-1.9-1.5
			c-0.5-0.6-0.7-1.3-0.7-2c0-0.7,0.2-1.4,0.7-2c0.5-0.6,1.1-1.2,1.9-1.6c0.8-0.5,1.8-0.8,2.9-1.1c1.1-0.3,2.3-0.4,3.6-0.4
			c1.3,0,2.5,0.1,3.6,0.4c1.1,0.3,2.1,0.6,2.9,1.1c0.8,0.5,1.5,1,1.9,1.6c0.5,0.6,0.7,1.3,0.7,2H123.4z"/>
		<path fill="none" stroke="#6E6F72" stroke-width="1.4945" d="M123.4,52c0-0.5-0.2-1.1-0.6-1.6c-0.4-0.5-1-1-1.7-1.4
			c-0.7-0.4-1.6-0.7-2.6-1c-1-0.2-2-0.4-3-0.4c-1.1,0-2.1,0.1-3,0.3c-1,0.2-1.8,0.5-2.5,0.9c-0.7,0.4-1.3,0.8-1.7,1.4
			c-0.4,0.5-0.7,1.1-0.7,1.7c0,0.6,0.2,1.2,0.7,1.7c0.4,0.5,1.1,0.9,1.8,1.3c0.8,0.4,1.7,0.7,2.7,1c1,0.3,2.2,0.5,3.4,0.8
			c1.1,0.2,2.2,0.5,3.2,0.8c1,0.3,2,0.7,2.7,1.2c0.8,0.5,1.4,1.1,1.9,1.8c0.5,0.7,0.7,1.5,0.7,2.4c0,0.8-0.2,1.5-0.7,2.1
			c-0.5,0.6-1.1,1.2-2,1.6c-0.8,0.4-1.8,0.8-3,1c-1.1,0.2-2.3,0.4-3.6,0.4c-1.3,0-2.5-0.1-3.6-0.4c-1.1-0.3-2.1-0.6-2.9-1.1
			c-0.8-0.5-1.5-1-2-1.6c-0.5-0.6-0.7-1.3-0.7-2h1c0,0.6,0.2,1.1,0.7,1.7c0.5,0.5,1.1,1,1.8,1.4c0.8,0.4,1.6,0.7,2.6,0.9
			c1,0.2,2,0.3,3.1,0.3c1.1,0,2.1-0.1,3.1-0.3c1-0.2,1.8-0.5,2.6-0.9c0.8-0.4,1.4-0.8,1.8-1.4c0.4-0.5,0.7-1.1,0.7-1.7
			c0-0.8-0.2-1.5-0.6-2c-0.4-0.6-1-1.1-1.7-1.5c-0.7-0.4-1.5-0.8-2.5-1.1c-1-0.3-2-0.5-3.1-0.8c-1.4-0.3-2.6-0.6-3.8-0.9
			c-1.1-0.3-2.1-0.7-3-1.2c-0.8-0.4-1.5-1-1.9-1.5c-0.5-0.6-0.7-1.3-0.7-2c0-0.7,0.2-1.4,0.7-2c0.5-0.6,1.1-1.2,1.9-1.6
			c0.8-0.5,1.8-0.8,2.9-1.1c1.1-0.3,2.3-0.4,3.6-0.4c1.3,0,2.5,0.1,3.6,0.4c1.1,0.3,2.1,0.6,2.9,1.1c0.8,0.5,1.5,1,1.9,1.6
			c0.5,0.6,0.7,1.3,0.7,2H123.4z"/>
		<path fill="#6E6F72" d="M136.2,55.4c-1.6-1.5-3.4-3.2-3.4-5.4c0-2.7,2.8-3.9,5.6-3.9c2.8,0,5.7,1.2,5.7,3.8c0,2.6-2.4,4.2-4.7,5.7
			l7.5,6.7c1.2-2.2,1.8-5.6,1.6-8h2.5c-0.4,3.1-0.6,6.5-2.6,9.3l4.9,4.5h-3.3l-3.1-2.9c-2.1,2.1-4.5,3.3-7.8,3.3
			c-5.2,0-9.4-2.4-9.4-6.4c0-3.3,3.4-5.1,6.2-6.7C136.1,55.5,136.2,55.4,136.2,55.4 M137.7,56.7c-1.7,0.9-5.4,3.2-5.4,5.1
			c0,3.1,3.2,5,6.7,5c2.9,0,4.8-1.1,6.7-2.8L137.7,56.7z M141.7,50c0-1.5-1.6-2.2-3.1-2.2c-1.7,0-3.2,0.6-3.2,2.2s1.6,3.2,2.8,4.3
			C139.6,53.2,141.7,51.9,141.7,50"/>
		<polygon fill="#6E6F72" points="183.1,47 184.1,47 184.1,68.1 183.1,68.1 183.1,48.8 172.1,68.1 171.1,68.1 159.9,48.8 
			159.9,68.1 158.8,68.1 158.8,47 159.9,47 171.5,66.8 		"/>
		<polygon fill="none" stroke="#6E6F72" stroke-width="1.4945" points="183.1,47 184.1,47 184.1,68.1 183.1,68.1 183.1,48.8 
			172.1,68.1 171.1,68.1 159.9,48.8 159.9,68.1 158.8,68.1 158.8,47 159.9,47 171.5,66.8 		"/>
		<path fill="#6E6F72" d="M189,47h1v10.6c0,1.4,0.3,2.6,0.9,3.8c0.6,1.2,1.4,2.2,2.5,3.1c1,0.9,2.3,1.6,3.7,2.1
			c1.4,0.5,2.9,0.8,4.5,0.8c1.6,0,3.1-0.3,4.5-0.8c1.4-0.5,2.6-1.2,3.7-2.1c1-0.9,1.9-1.9,2.5-3.1c0.6-1.2,0.9-2.5,0.9-3.8V47h1
			v10.6c0,1.5-0.3,2.8-1,4.1c-0.7,1.3-1.6,2.4-2.7,3.4c-1.1,1-2.5,1.7-4,2.3c-1.5,0.6-3.2,0.8-4.9,0.8c-1.7,0-3.4-0.3-4.9-0.8
			c-1.5-0.6-2.9-1.3-4-2.3c-1.1-1-2-2.1-2.7-3.4c-0.7-1.3-1-2.7-1-4.1V47z"/>
		<path fill="none" stroke="#6E6F72" stroke-width="1.4945" d="M189,47h1v10.6c0,1.4,0.3,2.6,0.9,3.8c0.6,1.2,1.4,2.2,2.5,3.1
			c1,0.9,2.3,1.6,3.7,2.1c1.4,0.5,2.9,0.8,4.5,0.8c1.6,0,3.1-0.3,4.5-0.8c1.4-0.5,2.6-1.2,3.7-2.1c1-0.9,1.9-1.9,2.5-3.1
			c0.6-1.2,0.9-2.5,0.9-3.8V47h1v10.6c0,1.5-0.3,2.8-1,4.1c-0.7,1.3-1.6,2.4-2.7,3.4c-1.1,1-2.5,1.7-4,2.3c-1.5,0.6-3.2,0.8-4.9,0.8
			c-1.7,0-3.4-0.3-4.9-0.8c-1.5-0.6-2.9-1.3-4-2.3c-1.1-1-2-2.1-2.7-3.4c-0.7-1.3-1-2.7-1-4.1V47z"/>
		<path fill="#6E6F72" d="M236.3,52c0-0.5-0.2-1.1-0.6-1.6c-0.4-0.5-1-1-1.7-1.4c-0.7-0.4-1.6-0.7-2.6-1c-1-0.2-2-0.4-3-0.4
			c-1.1,0-2.1,0.1-3,0.3c-1,0.2-1.8,0.5-2.5,0.9c-0.7,0.4-1.3,0.8-1.7,1.4c-0.4,0.5-0.7,1.1-0.7,1.7c0,0.6,0.2,1.2,0.7,1.7
			c0.4,0.5,1.1,0.9,1.8,1.3c0.8,0.4,1.7,0.7,2.7,1c1,0.3,2.2,0.5,3.4,0.8c1.1,0.2,2.2,0.5,3.2,0.8c1,0.3,2,0.7,2.7,1.2
			c0.8,0.5,1.4,1.1,1.9,1.8c0.5,0.7,0.7,1.5,0.7,2.4c0,0.8-0.2,1.5-0.7,2.1c-0.5,0.6-1.1,1.2-2,1.6c-0.8,0.4-1.8,0.8-3,1
			c-1.1,0.2-2.3,0.4-3.6,0.4c-1.3,0-2.5-0.1-3.6-0.4c-1.1-0.3-2.1-0.6-2.9-1.1c-0.8-0.5-1.5-1-2-1.6c-0.5-0.6-0.7-1.3-0.7-2h1
			c0,0.6,0.2,1.1,0.7,1.7c0.5,0.5,1.1,1,1.8,1.4c0.8,0.4,1.6,0.7,2.6,0.9c1,0.2,2,0.3,3.1,0.3c1.1,0,2.1-0.1,3.1-0.3
			c1-0.2,1.8-0.5,2.6-0.9c0.8-0.4,1.4-0.8,1.8-1.4c0.4-0.5,0.7-1.1,0.7-1.7c0-0.8-0.2-1.5-0.6-2c-0.4-0.6-1-1.1-1.7-1.5
			c-0.7-0.4-1.5-0.8-2.5-1.1c-1-0.3-2-0.5-3.1-0.8c-1.4-0.3-2.6-0.6-3.8-0.9c-1.1-0.3-2.1-0.7-3-1.2c-0.8-0.4-1.5-1-1.9-1.5
			c-0.5-0.6-0.7-1.3-0.7-2c0-0.7,0.2-1.4,0.7-2c0.5-0.6,1.1-1.2,1.9-1.6c0.8-0.5,1.8-0.8,2.9-1.1c1.1-0.3,2.3-0.4,3.6-0.4
			c1.3,0,2.5,0.1,3.6,0.4c1.1,0.3,2.1,0.6,2.9,1.1c0.8,0.5,1.5,1,1.9,1.6c0.5,0.6,0.7,1.3,0.7,2H236.3z"/>
		<path fill="none" stroke="#6E6F72" stroke-width="1.4945" d="M236.3,52c0-0.5-0.2-1.1-0.6-1.6c-0.4-0.5-1-1-1.7-1.4
			c-0.7-0.4-1.6-0.7-2.6-1c-1-0.2-2-0.4-3-0.4c-1.1,0-2.1,0.1-3,0.3c-1,0.2-1.8,0.5-2.5,0.9c-0.7,0.4-1.3,0.8-1.7,1.4
			c-0.4,0.5-0.7,1.1-0.7,1.7c0,0.6,0.2,1.2,0.7,1.7c0.4,0.5,1.1,0.9,1.8,1.3c0.8,0.4,1.7,0.7,2.7,1c1,0.3,2.2,0.5,3.4,0.8
			c1.1,0.2,2.2,0.5,3.2,0.8c1,0.3,2,0.7,2.7,1.2c0.8,0.5,1.4,1.1,1.9,1.8c0.5,0.7,0.7,1.5,0.7,2.4c0,0.8-0.2,1.5-0.7,2.1
			c-0.5,0.6-1.1,1.2-2,1.6c-0.8,0.4-1.8,0.8-3,1c-1.1,0.2-2.3,0.4-3.6,0.4c-1.3,0-2.5-0.1-3.6-0.4c-1.1-0.3-2.1-0.6-2.9-1.1
			c-0.8-0.5-1.5-1-2-1.6c-0.5-0.6-0.7-1.3-0.7-2h1c0,0.6,0.2,1.1,0.7,1.7c0.5,0.5,1.1,1,1.8,1.4c0.8,0.4,1.6,0.7,2.6,0.9
			c1,0.2,2,0.3,3.1,0.3c1.1,0,2.1-0.1,3.1-0.3c1-0.2,1.8-0.5,2.6-0.9c0.8-0.4,1.4-0.8,1.8-1.4c0.4-0.5,0.7-1.1,0.7-1.7
			c0-0.8-0.2-1.5-0.6-2c-0.4-0.6-1-1.1-1.7-1.5c-0.7-0.4-1.5-0.8-2.5-1.1c-1-0.3-2-0.5-3.1-0.8c-1.4-0.3-2.6-0.6-3.8-0.9
			c-1.1-0.3-2.1-0.7-3-1.2c-0.8-0.4-1.5-1-1.9-1.5c-0.5-0.6-0.7-1.3-0.7-2c0-0.7,0.2-1.4,0.7-2c0.5-0.6,1.1-1.2,1.9-1.6
			c0.8-0.5,1.8-0.8,2.9-1.1c1.1-0.3,2.3-0.4,3.6-0.4c1.3,0,2.5,0.1,3.6,0.4c1.1,0.3,2.1,0.6,2.9,1.1c0.8,0.5,1.5,1,1.9,1.6
			c0.5,0.6,0.7,1.3,0.7,2H236.3z"/>
		<rect x="243.1" y="47" fill="#6E6F72" width="1" height="21.2"/>
		<rect x="243.1" y="47" fill="none" stroke="#6E6F72" stroke-width="1.4945" width="1" height="21.2"/>
		<path fill="#6E6F72" d="M250.6,57.5c0,1.4,0.3,2.6,0.9,3.8c0.6,1.2,1.4,2.2,2.5,3.1c1,0.9,2.3,1.6,3.7,2.1
			c1.4,0.5,2.9,0.8,4.5,0.8c1.7,0,3.3-0.3,4.7-0.8h2.1c-1,0.5-2.1,1-3.2,1.2c-1.2,0.3-2.4,0.4-3.6,0.4c-1.7,0-3.4-0.3-4.9-0.8
			c-1.5-0.6-2.9-1.3-4-2.3c-1.1-1-2-2.1-2.7-3.4c-0.7-1.3-1-2.7-1-4.1c0-1.5,0.3-2.9,1-4.2c0.7-1.3,1.6-2.4,2.7-3.4
			c1.1-1,2.5-1.7,4-2.3c1.5-0.6,3.2-0.8,4.9-0.8c1.3,0,2.5,0.2,3.7,0.5c1.2,0.3,2.2,0.7,3.2,1.3H267c-0.8-0.3-1.5-0.5-2.3-0.7
			c-0.8-0.2-1.6-0.2-2.5-0.2c-1.6,0-3.1,0.3-4.5,0.8c-1.4,0.5-2.6,1.2-3.7,2.1c-1,0.9-1.9,1.9-2.5,3.1
			C250.9,54.9,250.6,56.2,250.6,57.5"/>
		<path fill="none" stroke="#6E6F72" stroke-width="1.4945" d="M250.6,57.5c0,1.4,0.3,2.6,0.9,3.8c0.6,1.2,1.4,2.2,2.5,3.1
			c1,0.9,2.3,1.6,3.7,2.1c1.4,0.5,2.9,0.8,4.5,0.8c1.7,0,3.3-0.3,4.7-0.8h2.1c-1,0.5-2.1,1-3.2,1.2c-1.2,0.3-2.4,0.4-3.6,0.4
			c-1.7,0-3.4-0.3-4.9-0.8c-1.5-0.6-2.9-1.3-4-2.3c-1.1-1-2-2.1-2.7-3.4c-0.7-1.3-1-2.7-1-4.1c0-1.5,0.3-2.9,1-4.2
			c0.7-1.3,1.6-2.4,2.7-3.4c1.1-1,2.5-1.7,4-2.3c1.5-0.6,3.2-0.8,4.9-0.8c1.3,0,2.5,0.2,3.7,0.5c1.2,0.3,2.2,0.7,3.2,1.3H267
			c-0.8-0.3-1.5-0.5-2.3-0.7c-0.8-0.2-1.6-0.2-2.5-0.2c-1.6,0-3.1,0.3-4.5,0.8c-1.4,0.5-2.6,1.2-3.7,2.1c-1,0.9-1.9,1.9-2.5,3.1
			C250.9,54.9,250.6,56.2,250.6,57.5z"/>
		<polygon fill="#6E6F72" points="30.7,157.8 26.8,157.8 24.8,108.7 22.8,157.8 18.9,157.8 15,83.1 18.7,83.1 20.9,134 22.9,83.1 
			26.6,83.1 28.8,134 30.8,83.1 34.5,83.1 		"/>
		<polygon fill="#6E6F72" points="38.3,83.1 47.2,83.1 47.2,86.1 41.9,86.1 41.9,118.9 45.5,118.9 45.5,121.9 41.9,121.9 
			41.9,154.8 47.2,154.8 47.2,157.8 38.3,157.8 		"/>
		<path fill="#6E6F72" d="M55.3,83.1c1.4,0,2.6,0.4,3.7,1.3c1,0.9,1.6,1.9,1.6,3.2v65.8c0,1.2-0.5,2.2-1.6,3.1
			c-1,0.9-2.3,1.3-3.8,1.4H50V83.1H55.3z M57.1,87.6c0-0.4-0.2-0.7-0.5-1c-0.4-0.3-0.8-0.4-1.2-0.4h-1.8v68.7h1.8
			c0.5,0,0.9-0.1,1.2-0.4c0.4-0.3,0.5-0.6,0.5-1V87.6z"/>
		<path fill="#6E6F72" d="M70,118.9h5.3v34.6c0,1.2-0.5,2.2-1.6,3.1c-1,0.9-2.3,1.3-3.8,1.4c-1.4,0-2.6-0.4-3.7-1.3
			c-1-0.9-1.6-1.9-1.6-3.2V87.3c0-1.2,0.5-2.2,1.6-3.1c1-0.9,2.3-1.3,3.8-1.4c1.4,0,2.6,0.4,3.7,1.3c1,0.9,1.6,1.9,1.6,3.2v1.7h-3.6
			v-1.7c0-0.4-0.2-0.7-0.5-1c-0.4-0.3-0.8-0.4-1.2-0.4c-0.5,0-0.9,0.1-1.2,0.4c-0.4,0.3-0.5,0.6-0.5,1v66.2c0,0.4,0.2,0.7,0.5,1
			c0.4,0.3,0.8,0.4,1.2,0.4c0.5,0,0.9-0.2,1.2-0.4c0.4-0.3,0.5-0.6,0.5-1v-31.6H70V118.9z"/>
		<polygon fill="#6E6F72" points="79.2,83.1 88.1,83.1 88.1,86.1 82.7,86.1 82.7,118.9 86.3,118.9 86.3,121.9 82.7,121.9 
			82.7,154.8 88.1,154.8 88.1,157.8 79.2,157.8 		"/>
		<polygon fill="#6E6F72" points="107.5,157.8 103.6,157.8 101.6,108.7 99.6,157.8 95.7,157.8 91.8,83.1 95.5,83.1 97.6,134 
			99.7,83.1 103.4,83.1 105.6,134 107.6,83.1 111.3,83.1 		"/>
		<path fill="#6E6F72" d="M119.9,158c-1.4,0-2.6-0.4-3.7-1.3c-1-0.9-1.6-1.9-1.6-3.2V87.3c0-1.2,0.5-2.2,1.6-3.1
			c1-0.9,2.3-1.3,3.8-1.4c1.4,0,2.6,0.4,3.7,1.3c1,0.9,1.6,1.9,1.6,3.2v66.2c0,1.2-0.5,2.2-1.6,3.1C122.7,157.5,121.4,158,119.9,158
			 M119.9,155c0.5,0,0.9-0.2,1.2-0.4c0.4-0.3,0.5-0.6,0.5-1V87.3c0-0.4-0.2-0.7-0.5-1c-0.4-0.3-0.8-0.4-1.2-0.4
			c-0.5,0-0.9,0.2-1.2,0.4c-0.4,0.3-0.5,0.6-0.5,1v66.2c0,0.4,0.2,0.7,0.5,1C119,154.9,119.5,155,119.9,155"/>
		<path fill="#6E6F72" d="M133.6,158c-1.4,0-2.6-0.4-3.7-1.3c-1-0.9-1.6-1.9-1.6-3.2V87.3c0-1.2,0.5-2.2,1.6-3.1
			c1-0.9,2.3-1.3,3.8-1.4c1.4,0,2.6,0.4,3.7,1.3c1,0.9,1.6,1.9,1.6,3.2v66.2c0,1.2-0.5,2.2-1.6,3.1C136.3,157.5,135.1,158,133.6,158
			 M133.6,155c0.5,0,0.9-0.2,1.2-0.4c0.4-0.3,0.5-0.6,0.5-1V87.3c0-0.4-0.2-0.7-0.5-1c-0.4-0.3-0.8-0.4-1.2-0.4
			c-0.5,0-0.9,0.2-1.2,0.4c-0.4,0.3-0.5,0.6-0.5,1v66.2c0,0.4,0.2,0.7,0.5,1C132.7,154.9,133.1,155,133.6,155"/>
		<path fill="#6E6F72" d="M148.3,83.1c1.4,0,2.6,0.4,3.7,1.3c1,0.9,1.6,1.9,1.6,3.2v65.8c0,1.2-0.5,2.2-1.6,3.1
			c-1,0.9-2.3,1.3-3.8,1.4H143V83.1H148.3z M150.1,87.6c0-0.4-0.2-0.7-0.5-1c-0.4-0.3-0.8-0.4-1.2-0.4h-1.8v68.7h1.8
			c0.5,0,0.9-0.1,1.2-0.4c0.4-0.3,0.5-0.6,0.5-1V87.6z"/>
		<polygon fill="#6E6F72" points="169.6,83.1 161.6,157.8 158,157.8 165.9,83.1 		"/>
		<polygon fill="#6E6F72" points="180.8,83.1 184.4,83.1 184.4,157.8 180.8,157.8 180.8,121.9 177.3,121.9 177.3,157.8 173.7,157.8 
			173.7,83.1 177.3,83.1 177.3,118.9 180.8,118.9 		"/>
		<path fill="#6E6F72" d="M193.8,158c-1.4,0-2.6-0.4-3.7-1.3c-1-0.9-1.6-1.9-1.6-3.2V87.3c0-1.2,0.5-2.2,1.6-3.1
			c1-0.9,2.3-1.3,3.8-1.4c1.4,0,2.6,0.4,3.7,1.3c1,0.9,1.6,1.9,1.6,3.2v66.2c0,1.2-0.5,2.2-1.6,3.1C196.5,157.5,195.3,158,193.8,158
			 M193.8,155c0.5,0,0.9-0.2,1.2-0.4c0.4-0.3,0.5-0.6,0.5-1V87.3c0-0.4-0.2-0.7-0.5-1c-0.4-0.3-0.8-0.4-1.2-0.4
			c-0.5,0-0.9,0.2-1.2,0.4c-0.4,0.3-0.5,0.6-0.5,1v66.2c0,0.4,0.2,0.7,0.5,1C192.9,154.9,193.3,155,193.8,155"/>
		<path fill="#6E6F72" d="M208.5,155c0.5,0,0.9-0.2,1.2-0.4c0.4-0.3,0.5-0.6,0.5-1V83.1h3.6v70.5c0,1.2-0.5,2.2-1.6,3.1
			c-1,0.9-2.3,1.3-3.8,1.4c-1.4,0-2.6-0.4-3.7-1.3s-1.6-1.9-1.6-3.2V83.1h3.6v70.5c0,0.4,0.2,0.7,0.5,1
			C207.6,154.9,208,155,208.5,155"/>
		<path fill="#6E6F72" d="M224.3,149.7c0-0.8-0.1-2.1-0.3-4c-0.2-1.9-0.5-4.1-0.8-6.7c-0.3-2.6-0.7-5.4-1.2-8.6
			c-0.4-3.1-0.9-6.3-1.3-9.5c-0.4-3.2-0.9-6.4-1.3-9.6c-0.4-3.2-0.8-6.1-1.1-8.8c-0.3-2.7-0.6-5-0.8-7.1c-0.2-2-0.3-3.5-0.3-4.4
			v-3.7c0-1.2,0.5-2.2,1.6-3.1c1-0.9,2.3-1.3,3.8-1.4c1.4,0,2.6,0.4,3.7,1.3c1,0.9,1.6,1.9,1.6,3.2v1.7h-3.6v-1.7
			c0-0.4-0.2-0.7-0.5-1c-0.4-0.3-0.8-0.4-1.2-0.4c-0.5,0-0.9,0.1-1.2,0.4c-0.4,0.3-0.5,0.6-0.5,1v3.1c0,0.8,0.1,2.2,0.3,4.2
			c0.2,1.9,0.5,4.2,0.8,6.9c0.3,2.6,0.7,5.5,1.1,8.7c0.4,3.2,0.8,6.4,1.3,9.6c0.4,3.3,0.9,6.5,1.3,9.6c0.4,3.2,0.8,6.1,1.2,8.7
			c0.3,2.7,0.6,5,0.8,6.9c0.2,2,0.3,3.4,0.3,4.3v4c0,1.2-0.5,2.2-1.6,3.1c-1,0.9-2.3,1.3-3.8,1.4c-1.4,0-2.7-0.4-3.7-1.3
			c-1-0.9-1.6-1.9-1.6-3.2v-1.7h3.6v1.7c0,0.4,0.2,0.7,0.5,1c0.4,0.3,0.8,0.4,1.2,0.4c0.5,0,0.9-0.2,1.2-0.4c0.4-0.3,0.5-0.6,0.5-1
			V149.7z"/>
		<polygon fill="#6E6F72" points="229.5,83.1 240.1,83.1 240.1,86.1 236.6,86.1 236.6,157.8 233,157.8 233,86.1 229.5,86.1 		"/>
		<path fill="#6E6F72" d="M247.8,158c-1.4,0-2.6-0.4-3.7-1.3c-1-0.9-1.6-1.9-1.6-3.2V87.3c0-1.2,0.5-2.2,1.6-3.1
			c1-0.9,2.3-1.3,3.8-1.4c1.4,0,2.6,0.4,3.7,1.3c1,0.9,1.6,1.9,1.6,3.2v66.2c0,1.2-0.5,2.2-1.6,3.1C250.5,157.5,249.2,158,247.8,158
			 M247.8,155c0.5,0,0.9-0.2,1.2-0.4c0.4-0.3,0.5-0.6,0.5-1V87.3c0-0.4-0.2-0.7-0.5-1c-0.4-0.3-0.8-0.4-1.2-0.4
			c-0.5,0-0.9,0.2-1.2,0.4c-0.4,0.3-0.5,0.6-0.5,1v66.2c0,0.4,0.2,0.7,0.5,1C246.9,154.9,247.3,155,247.8,155"/>
		<polygon fill="#6E6F72" points="257.2,83.1 260.5,83.1 265.6,134 265.2,83.1 268.7,83.1 268.7,157.8 265.3,157.8 260.3,107.7 
			260.7,157.8 257.2,157.8 		"/>
		<g>
			<g>
				<defs>
					<rect id="SVGID_20_" x="118.5" y="52.3" width="45.2" height="45.2"/>
				</defs>
				<clipPath id="SVGID_21_">
					<use xlink:href="#SVGID_20_"  overflow="visible"/>
				</clipPath>
				<g clip-path="url(#SVGID_21_)">
					<defs>
						<rect id="SVGID_22_" x="118.5" y="52.3" width="45.2" height="45.2"/>
					</defs>
					<clipPath id="SVGID_23_">
						<use xlink:href="#SVGID_22_"  overflow="visible"/>
					</clipPath>
					<path clip-path="url(#SVGID_23_)" fill="#01A79D" d="M129,84.7l4.4-1.1l-0.3-1.3l0.3-1.2l0.2-0.3l3.3-0.9l0.2,0.2l0.3,1
						l-0.3,1.5l4.7-1.2l-0.9-1.3l-3.2-9.3l0.3-1.3l-6.1,1.5l0.4,1.2L129.8,83L129,84.7z M135,73.7l0.1-0.7l0.2,0.7l1.1,3.6l-0.2,0.2
						l-1.9,0.5l-0.2-0.2L135,73.7z"/>
					<polygon clip-path="url(#SVGID_23_)" fill="#01A79D" points="149,70 151.2,69.5 153.1,69.7 151.8,66.2 142.1,68.7 140.9,72.7 
						142.7,71.6 145.1,71 145.2,71.1 145.2,78.7 144.7,80.8 149.4,79.6 148.8,77.9 148.8,70.3 					"/>
					<polygon clip-path="url(#SVGID_23_)" fill="#01A79D" points="128.4,86.8 130,86.8 153.8,80.9 153.8,80.1 128.4,86.4 					"/>
					<path clip-path="url(#SVGID_23_)" fill="#01A79D" d="M141.1,52.3c-12.5,0-22.6,10.1-22.6,22.6c0,12.5,10.1,22.6,22.6,22.6
						c12.5,0,22.6-10.1,22.6-22.6C163.7,62.5,153.5,52.3,141.1,52.3 M155.3,82.8l-0.8-0.4h-0.8l-9.5,2.4l-2.4,1.2l-1.6,1.6l-0.4,0.8
						l0.4,0.8h0.8l0.8-0.4l0.4-0.8l-0.4-0.8h0.8l0.8,0.8v1.2l-1.6,1.6h-2.4l-1.2-1.2v-2.2l2.8-1.8l-9.5,2.4h-4.7V67.8l0.8,0.4h0.8
						l9.5-2.4l2.4-1.2l1.6-1.6l0.4-0.8l-0.4-0.8h-0.8l-0.8,0.4l-0.4,0.8l0.4,0.8h-0.8l-0.8-0.8v-1.2l1.6-1.6h2.4l1.2,1.2v2.2
						l-2.8,1.8l9.5-2.4h4.8V82.8z"/>
					<polygon clip-path="url(#SVGID_23_)" fill="#01A79D" points="128.4,70.6 153.8,64.2 153.8,63.8 152.2,63.8 128.4,69.8 					"/>
				</g>
			</g>
		</g>
		<path fill="none" stroke="#6E6F72" stroke-width="1.4945" d="M42.1,68.1h-1.1l-1-1.7H19l-1,1.7h-1.1l11.9-21.2h1L42.1,68.1z
			 M19.5,65.6h20L29.3,48.1L19.5,65.6z"/>
	</g>
</g>
</svg>
